<?xml version="1.0" encoding="UTF-8"?>
<svg version="1.1" viewBox="0 0 1600 528" xmlns="http://www.w3.org/2000/svg">
<path transform="translate(0)" d="m0 0h1600v528h-1600v-528z" fill="#FCFDFE"/>
<path transform="translate(385 73.9)" d="m0 0c2.54 0.00543 5.08-1.16e-5 7.62-0.00635 1.62 6.6e-4 3.24 0.00194 4.87 0.00391 1.13-0.00304 1.13-0.00304 2.29-0.00613 3.16 0.0142 5.65 0.132 8.67 1.14 2.58-0.0905 5.12-0.239 7.69-0.438 27.3-1.84 27.3-1.84 38.3 0.438 2.55 3.83 2.31 6.97 2.32 11.4 0.0149 1.29 0.0149 1.29 0.0301 2.6 0.0293 2.85 0.0429 5.7 0.0539 8.55 0.0115 1.99 0.023 3.99 0.0345 5.98 0.021 4.19 0.0327 8.38 0.0397 12.6 0.0109 5.32 0.0587 10.6 0.116 16 0.0376 4.13 0.0477 8.25 0.0507 12.4 0.00598 1.96 0.0218 3.92 0.0484 5.88 0.249 19.8-5.18 35.5-14.7 52.7-0.543 0.985-1.09 1.97-1.64 2.98-5.74 9.67-13.6 18.1-22.4 25-0.578 0.825-1.16 1.65-1.75 2.5-2.63 2.92-4.79 3.89-8.38 5.34-2.21 0.895-4.36 1.83-6.52 2.83-13.9 6.35-27.2 9.8-42.3 11.3-0.652 0.0825-1.3 0.165-1.98 0.25-7.11 0.884-14.2 1.12-21.4 1.38-1.27 0.0516-2.54 0.103-3.85 0.156-1.21 0.0438-2.43 0.0877-3.68 0.133-1.65 0.0611-1.65 0.0611-3.33 0.124-2.77-0.0376-2.77-0.0376-5.77-1.04 0.00222-0.599 0.00444-1.2 0.00673-1.82 0.0221-6.21 0.0372-12.4 0.0482-18.6 0.00504-2.32 0.0119-4.64 0.0205-6.96 0.0121-3.33 0.0178-6.66 0.0222-9.99 0.00516-1.04 0.0103-2.09 0.0156-3.17 1.13e-4 -1.44 1.13e-4 -1.44 2.29e-4 -2.91 0.00222-0.85 0.00444-1.7 0.00673-2.58 0.0945-1.95 0.0945-1.95-1.12-2.94-1.47-0.093-2.95-0.117-4.43-0.114-0.941 7.55e-5 -1.88 1.51e-4 -2.85 2.29e-4 -1.02 0.00516-2.05 0.0103-3.1 0.0156-1.04 0.00141-2.08 0.00283-3.16 0.00429-3.34 0.00562-6.68 0.0182-10 0.0309-2.26 0.00501-4.52 0.00958-6.78 0.0137-5.55 0.0111-11.1 0.0278-16.7 0.0488-1.31 3.94-1.14 7.69-1.13 11.8-9.57e-4 0.867-0.00191 1.73-0.0029 2.63-6.81e-4 1.84 0.00117 3.67 0.00534 5.51 0.00532 2.79 6.44e-5 5.59-0.00635 8.38 6.61e-4 1.79 0.00194 3.57 0.00391 5.36-0.00202 0.829-0.00405 1.66-0.00613 2.51 0.0188 4.71 0.356 9.17 1.14 13.8-3.63-0.11-7.25-0.24-10.9-0.375-1.03-0.0309-2.07-0.0619-3.13-0.0938-1.48-0.058-1.48-0.058-2.99-0.117-0.911-0.0314-1.82-0.0628-2.76-0.0952-2.25-0.319-2.25-0.319-4.25-2.32-0.254-1.97-0.254-1.97-0.259-4.4-0.0063-0.911-0.0126-1.82-0.0191-2.76 0.00405-0.986 0.0081-1.97 0.0123-2.99-0.00191-1.01-0.00383-2.02-0.0058-3.06-0.00136-2.14 0.00234-4.28 0.0107-6.42 0.0107-3.28 1.13e-4 -6.56-0.0127-9.84 0.00132-2.08 0.00388-4.15 0.00781-6.23-0.00405-0.984-0.0081-1.97-0.0123-2.98 0.0063-0.914 0.0126-1.83 0.0191-2.77 0.00159-0.804 0.00318-1.61 0.00482-2.44 0.254-2.09 0.254-2.09 2.25-5.09 1.85-0.341 1.85-0.341 4.06-0.293 0.797 0.00967 1.59 0.0193 2.41 0.0293 0.833 0.0251 1.67 0.0503 2.52 0.0762 0.833 0.0135 1.67 0.0271 2.52 0.041 1.54 0.0262 3.09 0.0586 4.63 0.0989 1.28 0.033 2.57 0.0476 3.85 0.0476-0.0157-0.951-0.0314-1.9-0.0476-2.88-0.0552-3.61-0.0891-7.21-0.117-10.8-0.0149-1.55-0.0352-3.09-0.0615-4.64-0.177-10.6 0.64-20.3 3.23-30.7 0.188-0.759 0.377-1.52 0.571-2.3 7.07-26.2 25-49.5 48.4-63 9.06-5.06 18.1-8.8 28-11.7 1.05-0.352 2.1-0.704 3.18-1.07 10.5-2.57 21.6-2.09 32.4-2.06z" fill="#5EB7E3"/>
<path transform="translate(1097 116)" d="m0 0c1.19 0.0107 1.19 0.0107 2.4 0.0216 0.833-4.03e-5 1.67-8.06e-5 2.52-1.22e-4 2.77 0.00343 5.53 0.0224 8.3 0.0431 1.92 0.00891 3.84 0.0176 5.77 0.0261 5.08 0.0278 10.2 0.074 15.2 0.128 2.08 0.0221 4.16 0.0429 6.24 0.0625 6.06 0.0572 12.1 0.133 18.2 0.236 1.91 0.0312 3.83 0.0579 5.74 0.0801 2.69 0.0333 5.38 0.0855 8.06 0.143 0.785 0.00641 1.57 0.0128 2.38 0.0194 9.43 0.251 16 3.77 22.5 10.5 3.15 3.56 6.11 7.23 9 11 0.947 1.22 0.947 1.22 1.91 2.47 9.54 12.9 15.3 28.3 14.1 44.5-0.511 3.04-1.27 5.97-2.12 8.94-0.22 0.781-0.44 1.56-0.667 2.37-1.62 5.45-3.75 10.1-6.97 14.8-1.41 1.93-1.41 1.93-2.23 4.85h-2l-0.625 2.06c-1.8 3.85-4.28 7.02-7.38 9.94h-2l-0.625 1.75c-2.21 3.61-5.23 5.59-9.28 6.84-1.44 0.324-2.89 0.614-4.34 0.875-1.91 0.371-3.82 0.799-5.71 1.27-9.49 2.3-18.3 2.69-28.1 2.63-1.59-5.2e-4 -3.17 3.58e-6 -4.76 0.00151-3.29-8.89e-5 -6.59-0.0104-9.88-0.0286-4.22-0.0229-8.44-0.0232-12.7-0.0165-3.26 0.00334-6.52-0.00328-9.79-0.0131-1.56-0.00384-3.12-5e-3 -4.67-0.00341-2.17 3.7e-4 -4.33-0.0122-6.5-0.0285-1.23-0.00461-2.46-0.00921-3.73-0.014-3-0.261-3-0.261-6-2.26-0.375-2.13-0.375-2.13-0.374-4.82-0.0105-1.53-0.0105-1.53-0.0213-3.08 0.00764-1.12 0.0153-2.24 0.0232-3.4-0.00365-1.18-0.0073-2.35-0.0111-3.57-0.00673-3.23 2.76e-5 -6.47 0.0133-9.7 0.0113-3.38 0.00721-6.76 0.00525-10.1-8.84e-4 -5.68 0.0102-11.4 0.0286-17 0.0212-6.57 0.0247-13.1 0.0184-19.7-0.00569-6.31-5.27e-5 -12.6 0.0112-18.9 0.00465-2.69 0.00552-5.38 0.00341-8.07-3.69e-4 -3.75 0.0122-7.5 0.0285-11.3-0.00248-1.12-0.00495-2.24-0.00751-3.4 0.00708-1.02 0.0142-2.04 0.0215-3.08 0.00205-0.888 0.00411-1.78 0.00622-2.69 0.576-4.82 3.83-4.37 7.91-4.38z" fill="#0B75BB"/>
<path transform="translate(1295 116)" d="m0 0c1.51-0.0165 3.01-0.0437 4.52-0.082 13.9-0.35 26 2.26 37.1 11.4 2.57 2.5 4.8 5.17 7 8 0.648 0.802 1.3 1.6 1.96 2.43 7.55 9.77 13.7 21.2 15 33.6 0.131 1.05 0.263 2.1 0.398 3.18 0.702 6.75 0.626 12.3-1.4 18.8l-0.781 2.8c-4.48 14.9-13.6 29.1-27.2 37.2-3.25 1.64-6.54 2.86-10 4-1.09 0.374-2.18 0.748-3.3 1.13-17.9 5.52-38.8 4.08-56.3-2.84-6.23-3.32-11.1-8.06-14.4-14.3v-2h-2c-5.37-9.04-10.4-17.7-13-28-0.269-0.989-0.539-1.98-0.816-3-3.16-14.5 2.29-31.4 9.9-43.8 2.51-3.84 5.21-7.53 7.91-11.2l1.88-3.11c2.48-3.38 4.9-5.01 8.5-7.14 1.1-0.665 2.2-1.33 3.34-2.02 9.97-5.26 20.7-5 31.7-5.08z" fill="#0B75BB"/>
<path transform="translate(454,75)" d="m0 0c2.55 3.83 2.31 6.97 2.32 11.4 0.0149 1.29 0.0149 1.29 0.0301 2.6 0.0293 2.85 0.0429 5.7 0.0539 8.55 0.0115 1.99 0.023 3.99 0.0345 5.98 0.021 4.19 0.0327 8.38 0.0397 12.6 0.0109 5.32 0.0587 10.6 0.116 16 0.0376 4.13 0.0477 8.25 0.0507 12.4 0.00598 1.96 0.0218 3.92 0.0484 5.88 0.249 19.8-5.18 35.5-14.7 52.7-0.543 0.985-1.09 1.97-1.64 2.98-5.74 9.67-13.6 18.1-22.4 25-0.578 0.825-1.16 1.65-1.75 2.5-2.63 2.92-4.79 3.89-8.38 5.34-2.21 0.895-4.36 1.83-6.52 2.83-13.9 6.35-27.2 9.8-42.3 11.3-0.652 0.0825-1.3 0.165-1.98 0.25-7.11 0.884-14.2 1.12-21.4 1.38-1.27 0.0516-2.54 0.103-3.85 0.156-1.21 0.0438-2.43 0.0877-3.68 0.133-1.65 0.0611-1.65 0.0611-3.33 0.124-2.77-0.0376-2.77-0.0376-5.77-1.04v-49c4.25-2.13 5.95-2.2 10.6-2.05 1.3 0.0276 2.6 0.0553 3.94 0.0837 0.682 0.0167 1.36 0.0333 2.07 0.0505 19.6 0.422 38.6-1.18 53.7-15.3 13.2-14.1 16-25.1 15.8-44.1-0.0253-2.9-0.0391-5.79-0.0508-8.69-0.00352-0.773-0.00705-1.55-0.0107-2.34-0.0297-9.78 0.126-19.6 0.315-29.3 0.039-2.08 0.0743-4.15 0.106-6.23 0.0451-2.93 0.103-5.86 0.164-8.79 0.0115-0.881 0.0231-1.76 0.035-2.67 0.0199-0.815 0.0397-1.63 0.0602-2.47 0.0133-0.709 0.0266-1.42 0.0404-2.15 0.322-2.32 1.13-3.97 2.28-6.01 34.4-2.39 34.4-2.39 46 0z" fill="#006FB4"/>
<path transform="translate(523 116)" d="m0 0c0.78-0.00336 1.56-0.00672 2.36-0.0102 2.55-0.0094 5.09-0.0114 7.64-0.0125 1.79-0.00322 3.57-0.00658 5.36-0.0101 3.73-0.00596 7.46-0.00784 11.2-0.00725 4.77 1.02e-4 9.54-0.0136 14.3-0.0308 3.68-0.0111 7.37-0.0131 11.1-0.0126 1.76-0.00118 3.52-0.00558 5.27-0.0133 2.46-0.00984 4.92-0.00691 7.38-8.95e-4 0.718-0.00562 1.44-0.0112 2.18-0.017 7.07 0.0438 12.8 1.26 17.9 6.26 1.62 2.11 3.08 4.14 4.5 6.38 0.388 0.612 0.776 1.22 1.18 1.85 7.07 11.6 11 24.3 8.39 37.8-2.89 10-9.87 17.7-18.1 23.9-0.59 0.483-1.18 0.967-1.79 1.46-9.75 7.16-24.1 5.83-35.6 5.72-1.31-6.45e-4 -2.62-0.00129-3.97-0.00195-5.99-0.0274-11.7-0.295-17.6-1.19-2.31-0.064-4.63-0.0863-6.94-0.0625-1.72 0.0135-1.72 0.0135-3.46 0.0273-0.857 0.0116-1.71 0.0232-2.6 0.0352 0.00786 0.835 0.00786 0.835 0.0159 1.69 0.112 13.8-0.227 27.5-1.02 41.3-3.59 1.2-6.53 1.13-10.3 1.12-1.3 0.00258-2.59 0.00516-3.93 0.00781-3.4-0.12-6.47-0.287-9.76-1.13-2.15-3.23-2.25-4.06-2.25-7.78-0.00419-0.983-0.00839-1.97-0.0127-2.98 0.00843-1.62 0.00843-1.62 0.017-3.26-0.0019-1.14-0.0038-2.27-0.00575-3.44-0.00371-3.76 7e-3 -7.53 0.0182-11.3 0.00119-2.61 0.00164-5.22 0.00139-7.83 9.37e-4 -5.47 0.00962-10.9 0.0233-16.4 0.0157-6.33 0.021-12.7 0.0203-19-6.11e-4 -6.09 0.00461-12.2 0.0128-18.3 0.00319-2.59 0.00515-5.18 0.00589-7.77 0.00216-3.62 0.0109-7.23 0.0216-10.9-4.53e-4 -1.07-9.06e-4 -2.15-0.00137-3.26 0.00426-0.986 0.00853-1.97 0.0129-2.99 0.00168-0.855 0.00335-1.71 0.00508-2.59 0.124-2.23 0.507-4.17 1.13-6.31 5.8-0.74 11.5-1.15 17.3-1.15z" fill="#0F71B9"/>
<path transform="translate(694 116)" d="m0 0c0.997-0.00283 1.99-0.00565 3.02-0.00857 5.25-0.0148 10.5-0.0242 15.7-0.0285 5.42-0.00555 10.8-0.0297 16.3-0.058 4.18-0.0186 8.36-0.0238 12.5-0.0254 2-0.00303 4-0.0111 6-0.0242 2.78-0.017 5.55-0.0152 8.33-0.00869 0.826-0.00921 1.65-0.0184 2.5-0.0279 2.28 0.0169 2.28 0.0169 5.9 0.384 2.59 3.88 2.26 7.13 2.19 11.6-9.67e-4 1.18-9.67e-4 1.18-0.00195 2.39-0.0452 5.84-0.0452 5.84-1.19 6.98-2.89 0.0793-5.75 0.0936-8.63 0.0659-1.36-0.00701-1.36-0.00701-2.74-0.0142-1.97-0.0105-3.95-0.0232-5.92-0.0377-3.13-0.0219-6.25-0.0361-9.38-0.0477-8.89-0.0337-17.8-0.0751-26.7-0.138-5.43-0.0377-10.9-0.0607-16.3-0.0743-2.07-0.00805-4.14-0.0216-6.21-0.0409-2.9-0.0266-5.81-0.0344-8.71-0.0381-1.28-0.0185-1.28-0.0185-2.58-0.0374-6.04 0.0202-10.6 1.05-15.6 4.67-3.72 5.29-4.14 12.5-5.19 18.7 1.56 0.197 3.12 0.382 4.69 0.562 0.87 0.104 1.74 0.209 2.64 0.316 2.62 0.232 2.62 0.232 4.93-0.362 3.16-0.595 6.11-0.651 9.32-0.662 1.31-0.00638 2.62-0.0128 3.97-0.0193 1.42-0.00153 2.85-0.00264 4.27-0.00337 1.47-0.00321 2.93-0.00658 4.4-0.0101 3.06-0.00598 6.13-0.00784 9.19-0.00725 3.93 1.02e-4 7.86-0.0136 11.8-0.0308 3.02-0.0111 6.05-0.0131 9.07-0.0126 1.45-0.00118 2.9-0.00561 4.35-0.0133 2.02-0.00978 4.04-0.00566 6.07-8.95e-4 1.73-0.00214 1.73-0.00214 3.49-0.00432 2.83 0.247 2.83 0.247 5.83 2.25 0.415 2.69 0.649 5.17 0.75 7.88 0.0638 1.08 0.0638 1.08 0.129 2.18 0.173 3.48 0.268 6.62-0.879 9.94-4.26 1.04-8.37 1.14-12.7 1.11-1.14 2.19e-4 -1.14 2.19e-4 -2.31 4.43e-4 -2.51-6.94e-4 -5.01-0.00846-7.52-0.0163-1.74-0.00187-3.48-0.00329-5.22-0.00429-4.58-0.00381-9.15-0.0136-13.7-0.0247-4.67-0.0102-9.34-0.0148-14-0.0198-9.16-0.0107-18.3-0.0278-27.5-0.0488 0.163 4.18 0.357 8.36 0.58 12.5 0.0713 1.42 0.134 2.84 0.188 4.26 0.0797 2.05 0.19 4.1 0.306 6.14 0.0864 1.85 0.0864 1.85 0.175 3.73 0.937 4.14 2.5 5.67 5.75 8.32 6.54 2.92 15.9 3.4 22.8 1.5 2.82-0.643 5.46-0.625 8.36-0.627 1.25-0.00315 2.5-0.0063 3.78-0.00955 1.36 0.00179 2.72 0.00384 4.08 0.00613 1.41-6.74e-4 2.81-0.00165 4.22-0.0029 2.95-0.00147 5.89 6.66e-4 8.84 0.00534 3.75 0.00567 7.5 0.00244 11.3-0.00357 2.91-0.00364 5.81-0.00245 8.72 1.28e-4 1.38 6.61e-4 2.76-1.3e-4 4.15-0.00248 17.5-0.0232 17.5-0.0232 22.8 1.14 2 2 2 2 2.24 3.86-0.00411 0.737-0.00822 1.47-0.0125 2.23-0.00193 0.801-0.00387 1.6-0.00586 2.43-0.0122 0.837-0.0245 1.67-0.0371 2.54-9.67e-4 1.26-9.67e-4 1.26-0.00195 2.55-0.0453 6.25-0.0453 6.25-1.19 7.39-3.11 0.117-6.19 0.168-9.3 0.177-0.977 0.00657-1.95 0.0131-2.96 0.0199-3.25 0.0198-6.51 0.0314-9.76 0.0414-1.11 0.00408-2.22 0.00815-3.37 0.0124-5.89 0.0209-11.8 0.0352-17.7 0.0445-6.07 0.011-12.1 0.0454-18.2 0.0852-4.67 0.0262-9.35 0.0345-14 0.0381-2.23 0.00486-4.47 0.0164-6.7 0.035-27.1 0.211-27.1 0.211-37.4-9.67-8.87-9.59-9.12-20.3-9.12-32.7-0.00712-1.55-0.0148-3.09-0.0231-4.64-0.0134-3.23-0.015-6.46-0.00916-9.69 0.00588-4.1-0.0246-8.2-0.0651-12.3-0.0261-3.19-0.0287-6.38-0.0251-9.57-0.00167-1.51-0.0111-3.02-0.0291-4.53-0.15-14.2 2.23-25.8 12.4-36.4 0.721-0.656 1.44-1.31 2.18-1.99 0.553-0.522 1.11-1.04 1.67-1.58 3.16-1.93 6.11-1.98 9.72-2.09 1.11-0.0494 1.11-0.0494 2.25-0.0998 9.69-0.388 19.4-0.41 29.1-0.428z" fill="#0A75BB"/>
<path transform="translate(1061 116)" d="m0 0c0.833 0.0354 1.67 0.0709 2.52 0.107 1.19 0.0648 1.19 0.0648 2.41 0.131 0.731 0.0378 1.46 0.0756 2.21 0.115 1.85 0.335 1.85 0.335 3.85 2.33 0.246 2.12 0.246 2.12 0.241 4.8 0.00275 1.01 0.0055 2.02 0.00833 3.07-0.0108 1.67-0.0108 1.67-0.0218 3.38 2.92e-4 1.17 5.84e-4 2.34 8.85e-4 3.55-0.00116 3.21-0.0112 6.43-0.0251 9.64-0.0125 3.36-0.0137 6.72-0.0161 10.1-0.00622 6.36-0.0226 12.7-0.0427 19.1-0.0223 7.24-0.0333 14.5-0.0434 21.7-0.0209 14.9-0.0561 29.8-0.101 44.7-1.43-0.45-2.86-0.907-4.28-1.37-0.795-0.254-1.59-0.507-2.41-0.769-3.44-1.29-6.16-3.21-9.06-5.43-0.593-0.438-1.19-0.875-1.8-1.33-1.83-1.36-3.64-2.73-5.45-4.11-0.558-0.423-1.12-0.845-1.69-1.28-2.71-2.06-5.41-4.14-8.1-6.23-2.12-1.65-4.26-3.28-6.42-4.88-6.63-4.95-12.7-10.2-18.8-15.9-10.1-9.56-21.1-17.7-33.4-24.2-3.24-1.84-6.09-4.01-8.96-6.39-1.74-1.38-1.74-1.38-4.66-1.1 0.00222 0.836 0.00444 1.67 0.00673 2.53 0.0201 7.9 0.0353 15.8 0.0451 23.7 0.00521 4.06 0.0123 8.12 0.0236 12.2 0.0109 3.92 0.0169 7.85 0.0194 11.8 0.00184 1.49 0.00544 2.99 0.0109 4.48 0.00731 2.1 0.00826 4.2 0.0078 6.3 0.00222 1.19 0.00444 2.38 0.00673 3.61-0.124 3.54-0.558 6.93-1.12 10.4-6.38 2.13-13.9 1.74-20-1-1.6-1.6-1.13-3.31-1.13-5.53-0.00282-0.979-0.00564-1.96-0.00854-2.97 0.00202-1.08 0.00405-2.17 0.00613-3.28-0.00175-1.13-0.0035-2.27-0.00531-3.43-0.00442-3.77-0.00148-7.54 0.00189-11.3-6.73e-4 -2.61-0.00164-5.22-0.0029-7.83-0.00182-5.48 5.84e-4 -11 0.00534-16.4 0.00543-6.33 0.00369-12.7-0.00183-19-0.00509-6.09-0.00454-12.2-0.00162-18.3 6.68e-4 -2.59-1.54e-4 -5.18-0.00248-7.77-0.00254-3.62 0.00133-7.25 0.0069-10.9-0.00202-1.07-0.00405-2.15-0.00613-3.26 0.00282-0.99 0.00564-1.98 0.00854-3 3.77e-4 -0.857 7.54e-4 -1.71 0.00114-2.6 0.132-2.56 0.563-4.94 1.13-7.44 4.95 0.425 6.59 2.55 10 6 2.45 2.11 4.97 4.12 7.5 6.12 0.651 0.525 1.3 1.05 1.97 1.59 2.77 2.21 5.43 4.23 8.5 6.03 0.67 0.415 1.34 0.83 2.03 1.26v2c0.88 0.414 0.88 0.414 1.78 0.836 2.13 1.11 3.89 2.32 5.79 3.79 4.35 3.34 8.82 6.49 13.3 9.64l2.12 1.73v2c0.583 0.275 1.17 0.549 1.77 0.832 5.25 2.74 9.75 6.69 14.1 10.7 3.55 3.17 7.3 5.47 11.4 7.84 4.14 2.55 7.93 5.52 11.8 8.47 3.87 2.9 7.86 5.56 11.9 8.19-0.162-1.18-0.325-2.35-0.492-3.56-0.75-6.8-0.652-13.6-0.641-20.4-6.75e-4 -1.44-0.00165-2.87-0.0029-4.31-0.00147-2.99 6.43e-4 -5.99 0.00534-8.98 0.00573-3.84 0.00239-7.67-0.00357-11.5-0.00361-2.96-0.00247-5.92 1.28e-4 -8.88 6.66e-4 -1.42-1.49e-4 -2.83-0.00248-4.25-0.00254-1.97 0.00201-3.94 0.0069-5.92 7.96e-4 -1.12 0.00159-2.24 0.00241-3.4 0.127-2.77 0.127-2.77 1.13-5.77 3.43-1.72 7.24-0.9 11-0.688z" fill="#0F72B9"/>
<path transform="translate(1137 136)" d="m0 0c1.39-0.0115 2.78-0.0318 4.16-0.0615 14.9-0.316 31 1.79 42.4 12.3 9.41 10.3 10.2 19.8 10.3 33.4 0.0458 1.28 0.0915 2.56 0.139 3.88 0.0991 8.38-0.921 13.5-6.58 19.8-0.704 0.798-1.41 1.6-2.13 2.42-11.1 9.87-21.6 12.9-36.2 12.5-0.967-0.0236-1.93-0.0472-2.93-0.0715-3.07-0.0761-6.13-0.16-9.2-0.245-2.09-0.0533-4.18-0.106-6.26-0.158-5.1-0.129-10.2-0.265-15.3-0.404-2.32-3.67-2.25-6.8-2.24-11.1-0.0019-0.705-0.0038-1.41-0.00575-2.14-0.0037-2.32 0.00698-4.65 0.0182-6.97 0.00119-1.62 0.00164-3.24 0.00139-4.86 0.00156-3.39 0.00984-6.78 0.0233-10.2 0.017-4.34 0.0208-8.68 0.0201-13 2.72e-4 -3.34 0.00576-6.69 0.013-10 0.00318-1.6 0.00515-3.2 0.00589-4.8 0.00218-2.24 0.0109-4.48 0.0216-6.72 0.00381-1.27 0.00762-2.55 0.0116-3.86 0.117-2.92 0.456-5.52 1.13-8.35 7.5-1.02 15-1.25 22.5-1.3z" fill="#FDFEFF"/>
<path transform="translate(385 124)" d="m0 0c2.33 0.0109 4.67-4.28e-5 7-0.0127 1.49 0.00132 2.98 0.00388 4.46 0.00781 0.696-0.00405 1.39-0.0081 2.11-0.0123 4.87 0.0479 4.87 0.0479 7.1 2.28 0.405 4.34 0.329 8.7 0.316 13.1-0.0031 2.15 0.0201 4.29 0.0457 6.44 0.0573 11.7-0.213 24-7.92 33.4-0.785 0.987-1.57 1.97-2.38 2.99-0.679 0.704-1.36 1.41-2.06 2.13h-2c-0.248 0.589-0.495 1.18-0.75 1.79-5.12 9.07-17.9 13.8-27.4 16.5-8.8 2.17-17.8 2.06-26.8 2.06-0.728 0.0019-1.46 0.00381-2.2 0.00577-2.09-6.18e-4 -4.17-0.0186-6.26-0.0448-1.83-0.0225-1.83-0.0225-3.7-0.0454-2.89-0.291-2.89-0.291-4.89-2.29-0.403-4.11-0.329-8.23-0.316-12.4 0.00311-2.03-0.0201-4.07-0.0457-6.1-0.00725-14.7 3.91-30.7 14.4-41.8 16.1-13.9 30.2-18.1 51.3-18z" fill="#FDFEFF"/>
<path transform="translate(1318,144)" d="m0 0c0.637 0.442 1.27 0.884 1.93 1.34 8.38 6.43 14.3 17.3 16.1 27.7 0.925 11.3-0.98 21.5-7.91 30.6-7.04 8.06-15 15.5-26.1 16.4-13.8 0.827-25.3-3.32-36-12.1-7.99-7.61-12.1-17.9-12.6-28.8 0.445-13.5 6.81-23.8 16.4-32.9 4.34-3.61 8.84-5.5 14.2-7.19 1.43-0.483 1.43-0.483 2.88-0.977 11.9-3.57 21.2-1.19 31.1 5.98z" fill="#FDFEFF"/>
<path transform="translate(271,204)" d="m0 0c6.66-0.0759 13.3-0.129 20-0.165 2.27-0.0151 4.53-0.0356 6.8-0.0615 3.25-0.0363 6.5-0.0534 9.75-0.0667 1.53-0.0232 1.53-0.0232 3.08-0.0469 0.941-2.27e-4 1.88-4.53e-4 2.85-6.87e-4 0.831-0.00666 1.66-0.0133 2.52-0.0202 0.668 0.119 1.34 0.238 2.02 0.361 2.03 3.04 2.25 3.6 2.24 7.01 0.00275 0.812 0.0055 1.62 0.00833 2.46-0.00719 0.887-0.0144 1.77-0.0218 2.69 2.92e-4 0.937 5.84e-4 1.87 8.85e-4 2.84-0.00139 3.1-0.017 6.2-0.0326 9.3-0.00373 2.15-0.00658 4.3-0.00858 6.44-0.00764 5.66-0.0273 11.3-0.0494 17-0.0204 5.77-0.0296 11.5-0.0397 17.3-0.0215 11.3-0.0556 22.7-0.0977 34-6.94 0.0253-13.9 0.0428-20.8 0.0549-2.36 0.00504-4.73 0.0119-7.09 0.0205-3.39 0.0121-6.78 0.0178-10.2 0.0222-1.06 0.00516-2.12 0.0103-3.22 0.0156-0.981 7.55e-5 -1.96 1.51e-4 -2.97 2.29e-4 -0.866 0.00222-1.73 0.00444-2.62 0.00673-2.1-0.12-2.1-0.12-4.1-1.12-1.54-9.61-1.11-19.4-1.06-29.1 0.00502-1.74 0.00959-3.47 0.0137-5.21 0.0109-4.22 0.0281-8.44 0.0488-12.7l2-1c-0.242-1.2-0.242-1.2-0.49-2.43-0.612-4.29-0.673-8.45-0.678-12.8-0.00333-0.87-0.00666-1.74-0.0101-2.64-0.00504-1.83-0.00741-3.66-0.00725-5.49-0.0022-2.8-0.0204-5.6-0.0393-8.4-0.00293-1.78-0.00492-3.57-0.00586-5.35-0.00719-0.835-0.0144-1.67-0.0218-2.53 0.00308-0.781 0.00615-1.56 0.00932-2.37-0.00143-0.684-0.00285-1.37-0.00432-2.07 0.292-2.31 1.11-3.94 2.25-5.96z" fill="#5FB8E3"/>
<path transform="translate(802,117)" d="m0 0c1.49 9.39 1.16 19.2 1.23 28.7 0.0168 2.36 0.04 4.72 0.0649 7.08 0.0699 6.7 0.131 13.4 0.182 20.1 0.0319 4.13 0.0732 8.25 0.12 12.4 0.0159 1.56 0.0283 3.12 0.0369 4.68-0.663 13.3-0.663 13.3 4.07 25 0.656 0.351 1.31 0.701 1.99 1.06 0.965 0.557 0.965 0.557 1.95 1.12 6.1 2.26 12.6 2 19 1.94 0.922-0.00379 1.84-0.00757 2.79-0.0115 3.91-0.0161 7.81-0.0439 11.7-0.0715 10.2-0.0659 20.4-0.0583 30.6 0.458 0.802 0.0392 1.6 0.0785 2.43 0.119 5.52 0.316 5.52 0.316 7.77 1.44 0.0289 3.31 0.0468 6.62 0.0625 9.94 0.00838 0.946 0.0168 1.89 0.0254 2.87 0.00322 0.899 0.00645 1.8 0.00977 2.72 0.00524 0.833 0.0105 1.67 0.0159 2.52-0.114 1.95-0.114 1.95-1.11 2.95-1.92 0.105-3.84 0.139-5.77 0.145-1.24 0.00638-2.47 0.0128-3.75 0.0193-1.36 0.00153-2.73 0.00264-4.09 0.00337-1.4 0.00321-2.8 0.00658-4.2 0.0101-2.95 0.00601-5.9 0.00784-8.84 0.00725-3.74-1.01e-4 -7.48 0.0134-11.2 0.0308-2.9 0.0113-5.8 0.0131-8.7 0.0126-1.38 0.00116-2.75 0.0055-4.13 0.0133-15.5 0.0799-34.1-0.191-46.3-11.2-11.2-13.4-11.6-28.2-11.4-44.7 0.00493-1.97 0.00823-3.95 0.00996-5.92 0.00759-4.11 0.028-8.22 0.0591-12.3 0.0399-5.28 0.0577-10.6 0.0673-15.8 0.00994-5.04 0.0298-10.1 0.0511-15.1 0.0034-0.963 0.00679-1.93 0.0103-2.92 0.0115-2.7 0.03-5.41 0.051-8.11 0.00403-1.21 0.00403-1.21 0.00815-2.45 0.0539-5.51 0.0539-5.51 1.17-6.63 3.63-0.382 7.29-0.47 10.9-0.625 1.03-0.0516 2.06-0.103 3.12-0.156 0.982-0.0438 1.96-0.0877 2.97-0.133 1.36-0.0611 1.36-0.0611 2.74-0.124 2.23 0.0376 2.23 0.0376 4.23 1.04z" fill="#0F72B9"/>
<path transform="translate(1111,139)" d="m0 0h3c-0.00333 1.42-0.00333 1.42-0.00673 2.87-0.0203 8.9-0.0353 17.8-0.0451 26.7-0.00522 4.58-0.0123 9.15-0.0236 13.7-0.0109 4.42-0.0168 8.83-0.0194 13.2-0.00185 1.69-0.00546 3.37-0.0109 5.06-0.00724 2.36-0.00826 4.72-0.0078 7.07-0.0036 0.7-0.00719 1.4-0.0109 2.12 0.00645 3.02 0.161 5.31 1.12 8.2 6.53 0.22 13.1 0.415 19.6 0.592 2.22 0.0632 4.44 0.132 6.65 0.207 3.2 0.107 6.4 0.193 9.6 0.275 0.982 0.0374 1.96 0.0747 2.97 0.113 8.83 0.19 15.7-1.77 23-6.75 6.62-4.44 6.62-4.44 9.19-5.44l3 1-0.5 2.31c-0.591 2.72-0.591 2.72-0.5 5.69l1.81 0.0625c2.19 0.938 2.19 0.938 3.94 4.5l1.25 3.44-3 2v2l-13 1 1 3-2 1c4.53 0.934 4.53 0.934 9 0l2 2c-14.2 4.08-27.3 6.46-42 6.36-1.59-5.2e-4 -3.17 3.59e-6 -4.76 0.00151-3.29-8.89e-5 -6.59-0.0104-9.88-0.0286-4.22-0.0229-8.44-0.0232-12.7-0.0165-3.26 0.00334-6.52-0.00328-9.79-0.0131-1.56-0.00384-3.12-5e-3 -4.67-0.00341-2.17 3.7e-4 -4.33-0.0122-6.5-0.0285-1.23-0.00461-2.46-0.00921-3.73-0.014-3-0.261-3-0.261-6-2.26-0.381-2.55-0.381-2.55-0.388-5.82-0.00946-1.22-0.0189-2.44-0.0287-3.7 0.00537-1.34 0.0115-2.68 0.0184-4.02-0.00202-1.37-0.00493-2.75-0.0087-4.12-0.00443-2.88 0.00202-5.76 0.016-8.65 0.017-3.68 0.0073-7.37-0.0107-11-0.0109-2.84-0.00737-5.68 3.83e-4 -8.51 0.00296-2.02-0.00611-4.03-0.0154-6.05 0.00946-1.23 0.0189-2.47 0.0287-3.74 0.00239-1.08 0.00477-2.16 0.00723-3.28 0.441-3.54 1.66-5.96 3.38-9.06 0.649-2.01 0.649-2.01 1-4 0.177-0.851 0.353-1.7 0.535-2.58 0.174-0.882 0.348-1.76 0.527-2.67 0.265-1.34 0.265-1.34 0.535-2.7 0.133-0.675 0.266-1.35 0.402-2.05h1v9c4.41-1.1 4.56-1.57 7-5h2c1.9-5.71 3.33-11.1 3.69-17.1 0.309-1.91 0.309-1.91 2.31-4.91z" fill="#0F72BA"/>
<path transform="translate(909 116)" d="m0 0c1.33 0.00773 1.33 0.00773 2.69 0.0156 0.924 0.0206 1.85 0.0412 2.8 0.0625 0.932 0.00516 1.86 0.0103 2.82 0.0156 6.9 0.0803 6.9 0.0803 8.05 1.23 0.162 2.44 0.259 4.84 0.314 7.28 0.031 1.15 0.031 1.15 0.0626 2.32 0.0666 2.56 0.125 5.12 0.182 7.68 0.0211 0.886 0.0421 1.77 0.0638 2.68 0.483 20.6 0.496 41.1 0.446 61.7-0.0105 4.8-0.0149 9.61-0.0198 14.4-0.0105 9.3-0.0274 18.6-0.0488 27.9-3.44 0.058-6.87 0.0936-10.3 0.125-0.976 0.0168-1.95 0.0335-2.96 0.0508-0.938 0.00645-1.88 0.0129-2.84 0.0195-0.864 0.0105-1.73 0.0209-2.62 0.0317-2.27-0.227-2.27-0.227-5.27-2.23-0.399-2.43-0.399-2.43-0.432-5.54-0.0198-1.17-0.0395-2.34-0.0599-3.55-0.00641-1.29-0.0128-2.57-0.0194-3.9-0.0171-1.36-0.0354-2.71-0.0549-4.07-0.0486-3.66-0.0784-7.32-0.104-11-0.0228-3.03-0.0551-6.06-0.0875-9.09-0.0822-7.71-0.144-15.4-0.194-23.1-0.0337-5.02-0.078-10-0.13-15.1-0.0643-6.24-0.113-12.5-0.147-18.7-0.0139-2.3-0.0322-4.6-0.0551-6.9-0.0294-3.18-0.0395-6.35-0.0439-9.53-0.0123-0.931-0.0246-1.86-0.0372-2.82 0.00295-0.847 0.00589-1.69 0.00893-2.57-0.00365-0.733-0.00729-1.47-0.011-2.22 0.863-4.51 3.85-5.3 8-5.25z" fill="#0F71B9"/>
<path transform="translate(694 116)" d="m0 0c0.997-0.00283 1.99-0.00565 3.02-0.00857 5.25-0.0148 10.5-0.0242 15.7-0.0285 5.42-0.00555 10.8-0.0297 16.3-0.058 4.18-0.0186 8.36-0.0238 12.5-0.0254 2-0.00303 4-0.0111 6-0.0242 2.78-0.017 5.55-0.0152 8.33-0.00869 0.826-0.00921 1.65-0.0184 2.5-0.0279 2.28 0.0169 2.28 0.0169 5.9 0.384 2.59 3.88 2.26 7.13 2.19 11.6-9.67e-4 1.18-9.67e-4 1.18-0.00195 2.39-0.0452 5.84-0.0452 5.84-1.19 6.98-2.89 0.0793-5.75 0.0936-8.63 0.0659-1.36-0.00701-1.36-0.00701-2.74-0.0142-1.97-0.0105-3.95-0.0232-5.92-0.0377-3.13-0.0219-6.25-0.0361-9.38-0.0477-8.89-0.0337-17.8-0.0751-26.7-0.138-5.43-0.0377-10.9-0.0607-16.3-0.0743-2.07-0.00805-4.14-0.0216-6.21-0.0409-2.9-0.0266-5.81-0.0344-8.71-0.0381-1.28-0.0185-1.28-0.0185-2.58-0.0374-7.86 0.0263-12.7 2.29-18.8 7.36-3 1-3 1-6.5-0.25-5.26-2.63-5.26-2.63-6.5-4.75-0.437-3.94-0.255-7.24 1-11-0.99-0.33-1.98-0.66-3-1 1.46-1.48 2.91-2.96 4.38-4.44 0.812-0.824 1.62-1.65 2.46-2.5 3.58-3.42 6.69-3.36 11.4-3.62 0.752-0.042 1.5-0.0839 2.28-0.127 9.72-0.496 19.4-0.507 29.2-0.526z" fill="#0F71B9"/>
<path transform="translate(271,204)" d="m0 0c6.66-0.0759 13.3-0.129 20-0.165 2.27-0.0151 4.53-0.0356 6.8-0.0615 3.25-0.0363 6.5-0.0534 9.75-0.0667 1.53-0.0232 1.53-0.0232 3.08-0.0469 0.941-2.27e-4 1.88-4.53e-4 2.85-6.87e-4 0.831-0.00666 1.66-0.0133 2.52-0.0202 0.668 0.119 1.34 0.238 2.02 0.361 2.14 3.21 2.24 3.9 2.14 7.56-0.0205 0.934-0.0411 1.87-0.0623 2.83-0.0477 1.47-0.0477 1.47-0.0964 2.96-0.0217 0.901-0.0433 1.8-0.0657 2.73-0.084 3.37-0.186 6.73-0.286 10.1l-0.625 22.8h-48c-2.25-5.63-2.25-5.63-2.26-9.18-0.0063-0.788-0.0126-1.58-0.0191-2.39 0.00405-0.837 0.0081-1.67 0.0123-2.54-0.00191-0.871-0.00383-1.74-0.0058-2.64-0.00136-1.84 0.00231-3.67 0.0107-5.51 0.0107-2.81 8.31e-5 -5.62-0.0127-8.43 0.00132-1.79 0.00388-3.57 0.00781-5.36-0.00405-0.839-0.0081-1.68-0.0123-2.54 0.0063-0.784 0.0126-1.57 0.0191-2.38 0.00159-0.687 0.00318-1.37 0.00482-2.08 0.299-2.31 1.12-3.95 2.25-5.97z" fill="#FDFEFF"/>
<path transform="translate(540 138)" d="m0 0c1.18 0.0202 2.36 0.0405 3.58 0.0614 1.28 0.0374 2.55 0.0747 3.86 0.113 1.96 0.0397 1.96 0.0397 3.96 0.0801 3.47 0.0704 6.93 0.159 10.4 0.252 3.54 0.0912 7.08 0.165 10.6 0.24 6.94 0.15 13.9 0.32 20.8 0.502 3.82 11.4 6.59 22.4 1 34-3.41 2.27-4.63 2.25-8.63 2.26-1.15 0.0063-2.31 0.0126-3.5 0.0191-1.87-0.00607-1.87-0.00607-3.78-0.0123-1.28 0.00191-2.56 0.00383-3.87 0.0058-2.7 0.00136-5.41-0.00133-8.11-0.0107-3.47-0.0114-6.94-0.00483-10.4 0.00714-3.31 0.00896-6.61 0.00269-9.92-0.00226-1.87 0.00607-1.87 0.00607-3.78 0.0123-1.15-0.0063-2.3-0.0126-3.49-0.0191-1.53-0.00239-1.53-0.00239-3.08-0.00482-2.42-0.254-2.42-0.254-4.42-2.25-0.4-4.54-0.329-9.1-0.316-13.7 0.00316-2.27-0.0203-4.53-0.0457-6.8-0.00227-1.44-0.00298-2.88-0.00195-4.32-0.00298-1.31-0.00596-2.62-0.00903-3.98 0.372-3.25 0.372-3.25 1.54-4.93 2.6-1.86 4.42-1.64 7.59-1.56z" fill="#FDFEFF"/>
<path transform="translate(1120,359)" d="m0 0c7.29 7.62 7.91 15.8 8 26-0.627 6.1-2.07 11.5-6.87 15.6-5.82 4.51-10 5.62-17.4 5.71-0.739 0.029-1.48 0.058-2.24 0.0879-6.65 0.0762-10.7-1.81-15.7-6.37-5.64-6.67-7.94-12.2-7.86-21 1.19-7.69 3.67-15.7 10-20.6 9.37-5.66 23.3-7.05 32 0.566z" fill="#F23C42"/>
<path transform="translate(380,356)" d="m0 0c6.12 5.1 11.3 11.9 12.2 19.9 1.01 15.5 1.01 15.5-3.74 21.5-5.41 5.45-9.62 8.72-17.5 8.94-11.5 0.0333-11.5 0.0333-15.3-2.62l-2.69-2.81-2.25-2.19c-4.82-7.75-5.96-16.2-4.06-25 1.79-6.57 3.66-12.6 9.31-16.8 7.71-3.96 15.9-4.19 24-1z" fill="#F1434C"/>
<path transform="translate(698 355)" d="m0 0c1.13-0.0374 2.27-0.0748 3.43-0.113 9.38-0.099 9.38-0.099 12.9 2.79 3.93 4.46 3.93 4.46 5.12 6.2 0.58 0.82 0.58 0.82 1.17 1.66 4.02 6.87 5.08 15.4 3.39 23.2-2.36 6.53-6.29 12-12.3 15.6-5.88 1.86-11.2 2.31-17.4 2.25-0.806 0.00773-1.61 0.0155-2.44 0.0234-5.93-0.0199-5.93-0.0199-8.18-2.27-0.259-2.83-0.398-5.57-0.449-8.41-0.0217-0.841-0.0435-1.68-0.0659-2.55-0.044-1.79-0.0832-3.57-0.118-5.36-0.0538-2.71-0.124-5.42-0.197-8.12-0.0407-1.74-0.0805-3.48-0.119-5.22-0.0208-0.8-0.0415-1.6-0.0629-2.43-0.192-10.9-0.192-10.9 1.01-15.9 4.2-2.1 9.63-1.32 14.2-1.38z" fill="#F1444C"/>
<path transform="translate(807,215)" d="m0 0c1.6 0.749 3.19 1.5 4.79 2.25 6.1 2.08 12.5 1.88 18.9 1.82 0.922-0.00379 1.84-0.00757 2.79-0.0115 3.91-0.0161 7.81-0.0439 11.7-0.0715 10.2-0.0659 20.4-0.0583 30.6 0.458 0.802 0.0392 1.6 0.0785 2.43 0.119 5.52 0.316 5.52 0.316 7.77 1.44 0.0289 3.31 0.0468 6.62 0.0625 9.94 0.00838 0.946 0.0168 1.89 0.0254 2.87 0.00322 0.899 0.00645 1.8 0.00977 2.72 0.00524 0.833 0.0105 1.67 0.0159 2.52-0.114 1.95-0.114 1.95-1.11 2.95-1.92 0.105-3.84 0.139-5.77 0.145-1.24 0.00638-2.47 0.0128-3.75 0.0193-1.36 0.00153-2.73 0.00264-4.09 0.00337-1.4 0.00321-2.8 0.00658-4.2 0.0101-2.95 0.00601-5.9 0.00784-8.84 0.00725-3.74-1.01e-4 -7.48 0.0134-11.2 0.0308-2.9 0.0113-5.8 0.0131-8.7 0.0126-1.38 0.00116-2.75 0.0055-4.13 0.0133-22.6 0.116-22.6 0.116-29.3-3.24v-2l-5-1 2-2h3v-2h2v-2l4-2v-6l-4-1 1-3h-2l1-3z" fill="#0A75BB"/>
<path transform="translate(720 219)" d="m0 0c2.92 0.0191 5.85 0.0232 8.77 0.0267 3.53 0.00518 7.06 0.0197 10.6 0.0344 1.94 0.00637 1.94 0.00637 3.92 0.0129 19.4 0.152 19.4 0.152 22.5 3.19 0.243 1.86 0.243 1.86 0.23 4.1-0.00193 0.801-0.00387 1.6-0.00586 2.43-0.0122 0.837-0.0245 1.67-0.0371 2.54-9.67e-4 1.26-9.67e-4 1.26-0.00195 2.55-0.0453 6.25-0.0453 6.25-1.19 7.39-2.59 0.0651-5.15 0.0651-7.73 0.0217-0.81-0.00961-1.62-0.0192-2.45-0.0291-2.69-0.0331-5.38-0.0734-8.07-0.114-1.86-0.0243-3.72-0.0481-5.58-0.0715-4.9-0.063-9.81-0.132-14.7-0.202-5-0.0706-10-0.135-15-0.201-9.82-0.129-19.6-0.265-29.5-0.404v-1c3.46-0.495 3.46-0.495 7-1v-2h-4v-2h9l-2.5-1.38-2.5-1.62v-2c-1.26 0.227-2.52 0.454-3.81 0.688-2.23 0.285-2.23 0.285-4.19 0.312-1.69-1.38-1.69-1.38-3-3-2.61-0.722-2.61-0.722-5-1v-1l11 1v-2l-11-1v-1c15.6-3.91 31.3-3.39 47.3-3.26z" fill="#0F71B9"/>
<path transform="translate(1136,355)" d="m0 0c4.18-0.0744 8.36-0.129 12.5-0.165 1.42-0.015 2.84-0.0355 4.26-0.0615 2.05-0.0366 4.1-0.0535 6.14-0.0667 1.85-0.0236 1.85-0.0236 3.73-0.0476 4.9 0.503 7.37 2.25 10.6 5.9 2.26 4.45 3.28 8.44 2.75 13.4-1.41 2.35-3.09 3.99-5 6 0 2.72 0.624 3.62 2.52 5.54 2.25 3.74 2.05 7.42 2.17 11.7 0.0342 0.84 0.0683 1.68 0.104 2.55 0.0822 2.07 0.147 4.14 0.209 6.2-4.66 1.17-4.66 1.17-7.75-0.375-2.25-1.62-2.25-1.62-3.25-2.62-0.286-3.3-0.449-6.59-0.621-9.9-0.163-3.26-0.163-3.26-2.38-6.1-3.46-1.39-7.08-1.1-10.8-1.06l-6.25 0.0625v20c-3.46 0.495-3.46 0.495-7 1-2.54-2.54-2.3-3.57-2.41-7.11-0.0388-1.06-0.0777-2.11-0.118-3.2-0.0308-1.14-0.0616-2.27-0.0933-3.44-0.0372-1.16-0.0744-2.31-0.113-3.51-0.23-7.75-0.36-15.5-0.387-23.2-0.00467-0.93-0.00935-1.86-0.0142-2.82 0.00209-0.854 0.00419-1.71 0.00635-2.59 0.00113-0.746 0.00226-1.49 0.00342-2.26 0.129-1.83 0.129-1.83 1.13-3.83z" fill="#ED4C57"/>
<path transform="translate(1196,355)" d="m0 0c4.56 4.35 6.12 10.1 8.12 15.9 0.347 0.976 0.694 1.95 1.05 2.96 0.665 1.88 1.32 3.76 1.97 5.64 0.682 1.97 1.38 3.94 2.09 5.9 0.758 2.56 0.758 2.56 0.758 6.56h2c0.61-1.73 1.22-3.46 1.83-5.18 0.536-1.52 1.07-3.03 1.61-4.55 1.42-4.02 2.83-8.04 4.19-12.1 0.262-0.766 0.523-1.53 0.792-2.32 0.502-1.47 0.998-2.95 1.49-4.42 2.3-6.68 2.3-6.68 5.09-8.45 2.45-0.328 2.45-0.328 5.12-0.25 1.33 0.0232 1.33 0.0232 2.7 0.0469 2.18 0.203 2.18 0.203 3.18 1.2 0.89 6.31 1.14 12.5 1.1 18.8-0.00141 0.897-0.00283 1.79-0.00429 2.72-0.00554 2.83-0.0181 5.66-0.0309 8.5-0.00502 1.93-0.00958 3.87-0.0137 5.8-0.011 4.71-0.0282 9.42-0.0488 14.1-3.09 1.55-5.68 0.603-9 0-1-1-1-1-1.11-4.23 1.59e-4 -1.43 0.00585-2.87 0.0159-4.3 0.00141-0.753 0.00283-1.51 0.00429-2.28 0.00561-2.41 0.0182-4.83 0.0309-7.24 0.00501-1.63 0.00958-3.27 0.0137-4.9 0.011-4.01 0.0283-8.02 0.0488-12h-2c-0.0967 0.798-0.193 1.6-0.293 2.42-0.888 4.5-2.4 8.61-4.02 12.9-0.296 0.804-0.592 1.61-0.896 2.44-1.54 4.13-3.15 8.23-4.85 12.3-0.306 0.736-0.612 1.47-0.927 2.23-1.01 1.73-1.01 1.73-3.76 2.79l-2.25-0.0625c-3.08-3.53-4.9-6.72-6.51-11.1-0.429-1.15-0.859-2.3-1.3-3.48-0.434-1.19-0.869-2.38-1.32-3.6-0.873-2.37-1.75-4.74-2.63-7.11-0.383-1.05-0.766-2.09-1.16-3.17-0.942-2.64-0.942-2.64-3.08-4.53v33h-5c-1.71-2.98-2.25-5.13-2.27-8.55-0.00953-0.894-0.0191-1.79-0.0289-2.71 9.11e-4 -0.957 0.00182-1.91 0.00276-2.9-0.00429-0.988-0.00857-1.98-0.013-3-0.00574-2.09-0.00625-4.17-0.00191-6.26 0.00317-3.2-0.0203-6.4-0.0457-9.61-0.00227-2.03-0.00298-4.05-0.00195-6.08-0.00921-0.961-0.0184-1.92-0.0279-2.91 0.00623-0.888 0.0125-1.78 0.0189-2.69-6.29e-4 -0.783-0.00126-1.57-0.00191-2.37 0.123-0.634 0.247-1.27 0.374-1.92 3.5-2.33 4.89-2.59 9-2z" fill="#F13C42"/>
<path transform="translate(678 160)" d="m0 0c1.97-0.00957 1.97-0.00957 3.97-0.0193 1.43-0.00153 2.86-0.00264 4.28-0.00337 1.47-0.00321 2.93-0.00658 4.4-0.0101 3.07-0.00598 6.14-0.00784 9.21-0.00725 3.94 1.02e-4 7.87-0.0136 11.8-0.0308 3.03-0.0111 6.05-0.0131 9.08-0.0126 1.45-0.00118 2.9-0.00561 4.36-0.0133 2.03-0.00978 4.05-0.00566 6.08-8.95e-4 1.73-0.00214 1.73-0.00214 3.5-0.00432 2.84 0.247 2.84 0.247 5.84 2.25 0.415 2.69 0.649 5.17 0.75 7.88 0.0638 1.08 0.0638 1.08 0.129 2.18 0.173 3.48 0.268 6.62-0.879 9.94-3.98 0.955-7.63 1.09-11.7 1.02-0.981-0.0144-0.981-0.0144-1.98-0.0291-2.15-0.0328-4.3-0.0732-6.44-0.114-1.5-0.0243-2.99-0.0482-4.49-0.0715-3.92-0.0627-7.85-0.132-11.8-0.202-4.01-0.0708-8.02-0.136-12-0.201-7.86-0.129-15.7-0.264-23.6-0.404v-1l14-1-1-4c-1.99-0.706-3.99-1.37-6-2-3.25-2.62-4.69-5.06-6-9l1-1-3-3c3.52-1.08 6.79-1.13 10.5-1.15z" fill="#006FB4"/>
<path transform="translate(603,355)" d="m0 0c10.1-0.78 10.1-0.78 13.5 2.09 1.57 3.1 2.89 6.13 4.05 9.41 0.657 1.85 0.657 1.85 1.33 3.74 0.22 0.637 0.441 1.27 0.668 1.93 0.678 1.95 1.37 3.9 2.07 5.85 3.36 9.55 3.36 9.55 3.36 13h3c0.318-0.984 0.635-1.97 0.962-2.98 1.18-3.65 2.38-7.3 3.57-11 0.516-1.58 1.03-3.16 1.54-4.74 0.734-2.27 1.48-4.54 2.23-6.81 0.225-0.706 0.45-1.41 0.682-2.14 2.13-6.39 2.13-6.39 5.02-8.37 3.1-0.253 5.2-0.399 8 1v50h-5c-1.91-1.91-1.24-5.34-1.32-7.88-0.0208-0.687-0.0416-1.37-0.063-2.08-0.0656-2.2-0.124-4.4-0.183-6.6-0.0432-1.49-0.0868-2.98-0.131-4.47-0.107-3.66-0.209-7.31-0.307-11-2.27 0.857-2.27 0.857-3.01 3.53-0.347 1.1-0.695 2.2-1.05 3.33-0.386 1.2-0.772 2.39-1.17 3.63-0.404 1.27-0.807 2.55-1.21 3.82-0.783 2.48-1.57 4.95-2.37 7.43-0.349 1.1-0.697 2.21-1.06 3.34-1.07 2.76-2.23 4.67-4.14 6.92-2.25-0.125-2.25-0.125-5-1-4.56-5.47-6.4-12.2-8.69-18.8-0.793-2.28-1.59-4.56-2.39-6.83-0.346-1-0.693-2.01-1.05-3.04-0.668-2.24-0.668-2.24-1.88-3.31-0.764 11-1.13 22-1 33-2.81 0.688-2.81 0.688-6 1-1.68-1.18-1.68-1.18-3-3-0.361-2.22-0.361-2.22-0.341-4.84 2.27e-4 -0.981 4.53e-4 -1.96 6.87e-4 -2.97 0.0155-1.06 0.031-2.11 0.0469-3.2 0.00424-1.08 0.00849-2.17 0.0129-3.28 0.0168-3.46 0.0545-6.93 0.0926-10.4 0.015-2.35 0.0287-4.69 0.041-7.04 0.0331-5.76 0.0833-11.5 0.146-17.3z" fill="#F1434C"/>
<path transform="translate(1187 207)" d="m0 0 2.38 0.125-0.5 2.81c-0.577 3.14-0.577 3.14-0.5 6.19l1.81 0.0625c2.19 0.938 2.19 0.938 3.94 4.5l1.25 3.44-3 2v2l-13 1 1 3-2 1c4.53 0.934 4.53 0.934 9 0l2 2c-3.65 1.05-7.32 2.03-11 3-1.44 0.403-1.44 0.403-2.92 0.814-11 2.75-21.7 2.52-33 2.37-1.96-0.0151-3.92-0.0288-5.88-0.041-4.75-0.0327-9.5-0.0843-14.2-0.146l1-3h8v-2h-7v-1c0.927-0.121 1.85-0.242 2.81-0.367 1.2-0.168 2.4-0.335 3.63-0.508 1.19-0.162 2.39-0.325 3.62-0.492 0.971-0.209 1.94-0.418 2.94-0.633l1-2c-0.888 0.143-0.888 0.143-1.79 0.289-4.83 0.678-7.72 0.792-12.2-1.29-3.32-0.765-6.65-1.39-10-2l-1-3c3-1 3-1 5.75-0.375 4.33 0.5 6.39-0.694 10.2-2.62l-11-1v-1h34l-1 2h-3v2c6.93-0.99 6.93-0.99 14-2v-3l3.81-1.06c6.8-2.24 14.4-10.8 20.8-11.1z" fill="#0F71B9"/>
<path transform="translate(989,355)" d="m0 0c3.2-0.572 4.92-0.805 8 0 9.04 7.35 16.1 22.2 20 33h2c-0.0355-0.822-0.0711-1.64-0.108-2.49-0.158-3.73-0.306-7.46-0.455-11.2-0.0561-1.29-0.112-2.59-0.17-3.92-0.0483-1.25-0.0967-2.49-0.146-3.78-0.0471-1.15-0.0943-2.29-0.143-3.48 0.0199-2.88 0.344-5.35 1.02-8.14 3.38-0.125 3.38-0.125 7 0 2 2 2 2 2.24 4.1-0.00666 1.3-0.00666 1.3-0.0135 2.62-1.51e-4 0.981-3.02e-4 1.96-4.58e-4 2.97-0.0103 1.06-0.0206 2.12-0.0313 3.22-0.00283 1.08-0.00566 2.17-0.00858 3.29-0.0112 3.47-0.0363 6.95-0.0617 10.4-0.01 2.35-0.0192 4.7-0.0273 7.05-0.0221 5.77-0.0556 11.5-0.0977 17.3-5.98 1.02-5.98 1.02-8 1-4.28-3.82-6.48-8.54-8.88-13.7-5-10.9-5-10.9-12.1-20.3-1.4 2.8-1.09 5.09-1.06 8.21 0.00773 1.24 0.0155 2.49 0.0234 3.77 0.026 2.63 0.052 5.27 0.0781 7.9 0.00773 1.24 0.0155 2.49 0.0234 3.77 0.0116 1.14 0.0232 2.29 0.0352 3.47-0.0977 2.88-0.0977 2.88-1.1 5.88-2.88 0.625-2.88 0.625-6 1-2.4-2.4-2.27-2.99-2.33-6.28-0.0231-0.885-0.0462-1.77-0.07-2.68-0.0147-0.958-0.0294-1.92-0.0445-2.9-0.0217-0.984-0.0435-1.97-0.0659-2.98-0.044-2.09-0.0832-4.17-0.118-6.26-0.054-3.19-0.124-6.37-0.197-9.56-0.0407-2.03-0.0804-4.05-0.119-6.08-0.0208-0.952-0.0415-1.9-0.0629-2.89-0.0136-0.894-0.0273-1.79-0.0413-2.71-0.014-0.782-0.0279-1.56-0.0423-2.37 0.105-2.52 0.544-4.84 1.1-7.3z" fill="#F1444D"/>
<path transform="translate(304 355)" d="m0 0c2.94 0.188 2.94 0.188 3.94 1.19 0.156 1.34 0.25 2.69 0.316 4.04 0.0628 1.21 0.0628 1.21 0.127 2.45 0.0393 0.85 0.0786 1.7 0.119 2.58 0.0432 0.854 0.0864 1.71 0.131 2.59 0.106 2.12 0.207 4.23 0.307 6.35 2.9 0 3.68-1.4 5.74-3.39 1.11-1.06 1.11-1.06 2.24-2.15 1.16-1.12 1.16-1.12 2.34-2.27 1.51-1.47 3.03-2.93 4.55-4.39 0.673-0.655 1.35-1.31 2.04-1.98 3.54-3.06 6.07-4.72 10.8-5.12 3.31 0.312 3.31 0.312 5.31 2.31-2.74 2.77-5.52 5.49-8.37 8.16-1.17 1.11-2.34 2.23-3.51 3.34-0.606 0.556-1.21 1.11-1.84 1.68-3.33 3.08-3.33 3.08-4.52 7.27 1.79 3.69 4.22 6.61 6.86 9.73 1.09 1.33 2.18 2.66 3.27 3.99 0.531 0.648 1.06 1.3 1.61 1.96 8.49 10.6 8.49 10.6 8.49 13.9l-3.81 0.0625c-1.06 0.0174-1.06 0.0174-2.14 0.0352-2.04-0.0977-2.04-0.0977-5.04-1.1v-2c-0.868-0.335-0.868-0.335-1.75-0.676-2.91-1.72-4.26-3.74-6.18-6.51-0.694-0.981-1.39-1.96-2.1-2.97-1.17-1.69-2.33-3.39-3.48-5.09-2.49-3.79-2.49-3.79-6.48-5.75l-0.875 1.75c-1.12 2.25-1.12 2.25-2.19 3.91-1.33 3.34-1.15 6.56-1.06 10.1 0.0135 1.05 0.0135 1.05 0.0273 2.11 0.0235 1.71 0.0593 3.42 0.0977 5.14-2.79 1.39-4.92 1.26-8 1-2.14-3.21-2.28-4.25-2.41-7.97-0.0387-0.983-0.0773-1.97-0.117-2.98-0.0309-1.03-0.0619-2.05-0.0938-3.11-0.0387-1-0.0773-2-0.117-3.03-0.321-8.82-0.448-17.6 0.117-26.4 0.0696-1.19 0.139-2.37 0.211-3.59 0.581-4.08 1.35-4.84 5.48-5.09z" fill="#F1434C"/>
<path transform="translate(266 355)" d="m0 0c1.05-0.00287 1.05-0.00287 2.13-0.0058 1.48-0.00136 2.96 0.00232 4.44 0.0107 2.27 0.0107 4.54 8.85e-5 6.81-0.0127 1.44 0.00132 2.88 0.00388 4.31 0.00781 1.31 0.00226 2.62 0.00451 3.97 0.00684 3.12 0.259 3.12 0.259 5.12 2.26v5l-26 1c-1.25 2.5-0.952 3.81-0.625 6.56 0.135 1.21 0.135 1.21 0.273 2.44 0.154 1.99 0.154 1.99 1.35 3 1.53 0.0262 3.06-0.012 4.59-0.0781 0.931-0.0258 1.86-0.0516 2.82-0.0781 1.97-0.0623 3.94-0.14 5.91-0.234 2.64-0.0584 5.07-0.0643 7.68 0.391 2.23 2.33 2.23 2.33 3 5l-1 3c-1.95 0.0909-1.95 0.0909-3.95 0.184-1.73 0.0845-3.45 0.169-5.18 0.254-0.856 0.0393-1.71 0.0786-2.59 0.119-4.5 0.225-8.85 0.579-13.3 1.44v10c5.86 1.58 12 1.01 18 0.873 0.873-0.011 1.75-0.0219 2.65-0.0332 1.19-0.0253 1.19-0.0253 2.41-0.051 1.98 0.211 1.98 0.211 3.98 2.21 0.27 2.69 0.0874 5.29 0 8-4.95 0.217-9.89 0.414-14.8 0.592-1.68 0.0635-3.37 0.133-5.05 0.207-2.42 0.106-4.83 0.193-7.25 0.275-0.755 0.0374-1.51 0.0747-2.29 0.113-2.12 0.0614-2.12 0.0614-5.56-0.187-2.12-3.18-2.25-3.98-2.27-7.62-0.00953-0.934-0.0191-1.87-0.0289-2.83 9.11e-4 -1.01 0.00182-2.01 0.00276-3.05-0.00429-1.03-0.00857-2.07-0.013-3.13-0.00574-2.19-0.00624-4.37-0.00191-6.56 0.00316-3.36-0.0203-6.71-0.0457-10.1-0.00227-2.12-0.00298-4.24-0.00195-6.37-0.00921-1.01-0.0184-2.02-0.0279-3.06 0.00623-0.931 0.0125-1.86 0.0189-2.82-6.29e-4 -0.821-0.00126-1.64-0.00191-2.49 0.123-0.662 0.247-1.32 0.374-2 3.74-2.5 5.75-2.26 10.2-2.27z" fill="#F0434B"/>
<path transform="translate(565 355)" d="m0 0c0.705 0.00405 1.41 0.0081 2.14 0.0123 0.725-0.00191 1.45-0.00383 2.2-0.0058 1.53-0.00136 3.07 0.00233 4.6 0.0107 2.35 0.0107 4.7 1.04e-4 7.05-0.0127 1.49 0.00132 2.98 0.00388 4.46 0.00781 0.705-0.00405 1.41-0.0081 2.14-0.0123 4.98 0.048 4.98 0.048 7.21 2.28l-1 5h-26l-1 12h2v2c1.17-0.0722 2.34-0.144 3.54-0.219 1.55-0.0938 3.1-0.188 4.64-0.281 0.769-0.0477 1.54-0.0954 2.33-0.145 2.16-0.13 4.32-0.245 6.48-0.355 1.42-0.0773 1.42-0.0773 2.86-0.156 2.14 0.156 2.14 0.156 5.14 2.16v6l-26 1c-0.671 8.03-0.671 8.03 1 11 5.37 1.32 10.8 1.04 16.3 0.873 3.77-0.0606 6.55 0.0143 9.75 2.13v8h-35v-2h-2c-0.0506-6.66-0.0857-13.3-0.11-20-0.0101-2.27-0.0237-4.53-0.041-6.8-0.0242-3.25-0.0356-6.5-0.0444-9.75-0.0103-1.02-0.0206-2.04-0.0313-3.08-1.51e-4 -0.941-3.02e-4 -1.88-4.58e-4 -2.85-0.00444-0.831-0.00888-1.66-0.0135-2.52 0.541-4.55 3.58-4.27 7.45-4.3z" fill="#F0424B"/>
<path transform="translate(251 203)" d="m0 0c0.718 0.00298 1.44 0.00596 2.18 0.00903 0.788 6.45e-4 1.58 0.00129 2.39 0.00195 0.824 0.0161 1.65 0.0322 2.5 0.0488 1.22-0.00483 1.22-0.00483 2.47-0.00977 4.17 0.0374 6.96 0.231 10.7 2.32l-1 3c-0.0975 2.94-0.14 5.86-0.133 8.8-9.57e-4 0.867-0.00191 1.73-0.0029 2.63-6.81e-4 1.84 0.00117 3.67 0.00534 5.51 0.00532 2.79 6.44e-5 5.59-0.00635 8.38 6.61e-4 1.79 0.00194 3.57 0.00391 5.36-0.00202 0.829-0.00405 1.66-0.00613 2.51 0.0188 4.71 0.356 9.17 1.14 13.8-3.63-0.11-7.25-0.24-10.9-0.375-1.03-0.0309-2.07-0.0619-3.13-0.0938-0.986-0.0387-1.97-0.0773-2.99-0.117-0.911-0.0314-1.82-0.0628-2.76-0.0952-2.25-0.319-2.25-0.319-4.25-2.32-0.254-1.97-0.254-1.97-0.259-4.4-0.0063-0.911-0.0126-1.82-0.0191-2.76 0.00405-0.986 0.0081-1.97 0.0123-2.99-0.00191-1.01-0.00383-2.02-0.0058-3.06-0.00136-2.14 0.00234-4.28 0.0107-6.42 0.0107-3.28 1.13e-4 -6.56-0.0127-9.84 0.00132-2.08 0.00388-4.15 0.00781-6.23-0.00405-0.984-0.0081-1.97-0.0123-2.98 0.0063-0.914 0.0126-1.83 0.0191-2.77 0.00159-0.804 0.00318-1.61 0.00482-2.44 0.346-2.85 1.07-4.85 4.07-5.47z" fill="#0B76BB"/>
<path transform="translate(788 356)" d="m0 0c5.08 4.73 9.33 9.27 9.69 16.5-5.21-0.822-8.02-1.63-11.6-5.56-2.26-2.46-3.22-3.38-6.44-4.56-3.79 0.161-5.79 1-8.94 3.12-4.33 5.29-6.37 10.7-5.81 17.5 0.72 4.96 2.15 9.21 5.12 13.3 3.81 2.68 6.71 3.34 11.3 2.62 3.84-1.64 5.32-2.82 7.38-6.44 0.335-3.21 0.335-3.21 0-6-0.615 0.0232-1.23 0.0464-1.86 0.0703-0.808 0.018-1.62 0.0361-2.45 0.0547-0.801 0.0232-1.6 0.0464-2.43 0.0703-2.26-0.195-2.26-0.195-5.26-2.2 0.375-2.44 0.375-2.44 1-5 3.17-1.59 6.58-1.14 10.1-1.12 0.746-0.00387 1.49-0.00773 2.26-0.0117 5.55 0.0101 5.55 0.0101 6.68 1.14 0.158 1.92 0.251 3.85 0.316 5.79 0.0419 1.17 0.0838 2.34 0.127 3.54 0.0393 1.23 0.0786 2.46 0.119 3.73 0.0432 1.24 0.0864 2.47 0.131 3.74 0.106 3.06 0.208 6.13 0.307 9.19l-4 2-5-5c-0.433 0.474-0.866 0.949-1.31 1.44-3.04 2.81-6.12 2.72-10.1 2.75-0.936 0.0142-1.87 0.0284-2.84 0.043-7.29-0.603-11.9-5.13-16.8-10.2-4.4-6.8-3.73-15-2.6-22.7 1.77-7.38 6.09-13.4 12.5-17.5 6.38-2.81 14.1-3.14 20.4-0.273z" fill="#F13B41"/>
<path transform="translate(1338,176)" d="m0 0h2c2.68 2.92 4.2 5.14 5 9l2 2 1-1h2l-0.562 1.69c-0.513 2.71-0.102 4.66 0.562 7.31h-3l3 2c0.293 2.38 0.293 2.38 0.188 5.12-0.0406 1.37-0.0406 1.37-0.082 2.76-0.0348 0.699-0.0696 1.4-0.105 2.12h-2l-1 4h3c-0.743 8.11-6.23 12.6-12 17.8-4.72 3.79-10.1 6.71-16 8.16-2.3-0.402-2.3-0.402-4-1l2-2h3l-1-1.69c-1.13-2.62-1.16-4.49-1-7.31h-4l2-5h-2v2c-1.98-0.33-3.96-0.66-6-1l-1-4 3.44-2c9.25-5.86 14.9-12.1 19.6-22 0.665-1.33 1.33-2.67 2-4l3-6h2l-2-2c-0.125-2.62-0.125-2.62 0-5z" fill="#0F72BA"/>
<path transform="translate(1268 355)" d="m0 0c7.52 5.13 10.3 19.3 13.1 27.5 2.79 8.03 5.62 16 8.88 23.9-3.12 1.56-5.57 1.36-9 1-3.48-3.84-3.69-7.78-5-13h-20l-1 7c-1.25 2.94-1.25 2.94-3 5-2.61 0.129-2.61 0.129-5 0 2.73-13.9 5.5-27.8 10.5-41.1 0.272-0.752 0.544-1.5 0.825-2.28 1.29-3.27 2.46-5.41 5.14-7.71 2.53-0.883 2.53-0.883 4.51-0.266z" fill="#F13B41"/>
<path transform="translate(430,356)" d="m0 0c3.67 3.49 6.4 7.19 8 12l-7 2c-0.424-0.578-0.848-1.16-1.29-1.75-3.74-4.92-3.74-4.92-9.4-6.88-2.86 0.54-4.88 1.07-7.31 2.62-0.418 2.83-0.418 2.83 0 6 3.59 3.59 6.5 4.55 11.4 5.31 5.56 1.13 8.32 2.45 11.6 7.07 2.74 4.66 2.73 9.32 1.95 14.6-2.33 4.3-5.48 7.14-10 9-7.81 1.65-14.2 1.11-21.2-2.81-3.62-2.88-6.12-5.42-7.69-9.81-0.0625-2.38-0.0625-2.38 1.38-4.19l1.56-1.19c3.2 0.979 4.75 1.67 6.81 4.38 2.88 3.46 5.92 5.23 10.2 6.62 3.68 0 5.21-0.287 7.94-2.75 1.37-2.9 1.07-4.24 0.0625-7.25-2.52-3.78-4.98-4.09-9.12-5.25-6.41-1.98-11.8-4.16-15.9-9.75-1.39-3.63-1.65-5.53-0.0625-9.11 2.62-4.48 5.27-7.88 10.3-9.69 6.14-1.31 11.9-1.95 17.8 0.801z" fill="#F1444D"/>
<path transform="translate(886 355)" d="m0 0c3.27 1.43 3.83 2.9 5.44 6.06 0.7 2.42 1.32 4.86 1.88 7.31 2.71 11.5 6.22 22.6 10.4 33.6 0.699 2.04 0.699 2.04 0.699 4.04h-8v-2h-2l-2-9-17-1-1.38 4.31c-0.964 3.02-1.83 5-3.62 7.69-3.62 0.188-3.62 0.188-7 0-1.37-4.11 0.122-6.77 1.61-10.6 0.28-0.751 0.561-1.5 0.85-2.28 0.597-1.59 1.2-3.19 1.8-4.78 0.916-2.41 1.82-4.82 2.72-7.23 9.76-26 9.76-26 15.6-26.1z" fill="#F13B41"/>
<path transform="translate(1324,356)" d="m0 0c3.84 3.21 6.06 6.4 8 11v2c-2.12 0.812-2.12 0.812-5 1-3.41-2.41-5.68-4.53-8-8-1.61 0.0873-3.21 0.196-4.81 0.312-0.893 0.058-1.79 0.116-2.71 0.176-2.48 0.357-2.48 0.357-4.3 1.68-1.68 2.62-1.38 4.79-1.18 7.83 1.63 0.381 1.63 0.381 3.29 0.77 1.45 0.347 2.89 0.695 4.34 1.04 0.713 0.166 1.43 0.331 2.16 0.502 6.92 1.68 12.3 3.65 16.2 9.8 1.94 3.71 2.55 6.85 1.42 10.9-1.91 4.54-4.5 7.71-8.83 10.1-6.26 2.03-13.6 2.03-20 0.148-4.19-2.18-7.1-5.43-9.65-9.3-0.312-3.38-0.312-3.38 0-6 1.81-1.06 1.81-1.06 4-2 3.36 1.12 3.6 1.58 5.38 4.44 2.23 3.22 3.66 4.73 7.62 5.56 5.17 0.558 5.17 0.558 9.94-1.19 1.41-2.4 1.99-4.01 2.06-6.81-2.85-3.55-5.43-4.72-9.75-5.94-6.3-1.96-11.4-4.43-16.2-8.88-1.54-3.37-1.51-6.59-1-10.2 1.57-4.16 3.08-6.82 7-9 6.9-2.47 13.2-3.1 20 0z" fill="#F2434C"/>
<path transform="translate(501 356)" d="m0 0c3.53 2.91 5.84 6.56 7.37 10.9l-1 3c-6.26-1.53-8.5-2.75-12-8-3.28-0.481-3.28-0.481-7-0.375-1.26-0.00773-2.52-0.0155-3.81-0.0234-1.05 0.131-2.1 0.263-3.19 0.398-2.29 3.44-2.18 4.99-2 9 4.28 2.59 9.12 2.98 14 3.68 5.85 0.97 10.1 2.84 13.9 7.67 2.24 5.08 2.23 10.2 1.17 15.6-2.89 4.06-6.3 6.43-11 8-2.93 0.298-5.87 0.323-8.81 0.375-1.19 0.0561-1.19 0.0561-2.41 0.113-4.18 0.0623-6.92-0.143-10.2-2.83-3.63-3.79-5.44-6.75-5.73-12l0.188-2.62c1.88 0.188 1.88 0.188 4 1l0.938 2.44c0.813 2.68 0.813 2.68 3.06 3.75 7.93 2.44 7.93 2.44 16 2.06 2.12-1.22 2.12-1.22 4-3.25 0.345-4.05 0.302-5.55-2-9-3.5-0.971-6.97-1.69-10.5-2.37-5.02-1.05-8.45-2.41-12.5-5.63-0.875-2.19-0.875-2.19-1-5-0.049-0.684-0.098-1.37-0.148-2.07-0.239-5.42 0.369-9.23 3.15-13.9 6.66-3.76 18.7-3.87 25.6-0.867z" fill="#F2434C"/>
<path transform="translate(1090,186)" d="m0 0h2c1.15 2.3 1.07 3.48 1 6.03-0.0551 4.91 0.407 9.67 1 14.5 0.0954 0.818 0.191 1.64 0.289 2.48 0.232 1.99 0.471 3.97 0.711 5.96l3-2 4 2 1-2v2h2v5l2 1-1 3c-1.98-0.33-3.96-0.66-6-1 1.39 3.48 2.63 4.48 6 6l1 2 1-2h2v-3l-2-1 1-2h2c2.16-2.03 2.16-2.03 4-5 1.88-0.33 1.88-0.33 4.19-0.265 0.865 0.017 1.73 0.034 2.62 0.0516 1.4 0.0513 1.4 0.0513 2.84 0.104 0.962 0.0241 1.92 0.0481 2.91 0.0729 2.04 0.0537 4.08 0.115 6.12 0.182 3.11 0.103 6.23 0.186 9.34 0.264 1.98 0.0548 3.96 0.111 5.94 0.168 1.4 0.0392 1.4 0.0392 2.82 0.0792 4.17 0.142 8.15 0.313 12.2 1.34l-2 3c-3.26 0.512-3.26 0.512-7.12 0.688-1.92 0.0986-1.92 0.0986-3.88 0.199-0.987 0.0374-1.97 0.0748-2.99 0.113v-2c0.99-0.33 1.98-0.66 3-1-3.44-0.087-6.87-0.14-10.3-0.188-0.976-0.0251-1.95-0.0503-2.96-0.0762-0.938-0.00967-1.88-0.0193-2.84-0.0293-1.3-0.0236-1.3-0.0236-2.62-0.0476-2.76 0.414-3.49 1.26-5.27 3.34-4.55 2.6-8.02 1.84-13 1v3c0.664 0.049 1.33 0.098 2.01 0.148 7.49 0.635 7.49 0.635 10.6 1.98 3.83 1.38 7.48 0.512 11.4-0.125v3c-2.31 0.99-4.62 1.98-7 3v2c-3.08 0.293-3.08 0.293-6.15 0.586-0.915 0.205-0.915 0.205-1.85 0.414l-1 2c-4.22 0.0495-8.43 0.0857-12.7 0.11-1.43 0.0101-2.87 0.0237-4.3 0.041-2.06 0.0243-4.13 0.0356-6.19 0.0444-1.24 0.0105-2.48 0.0209-3.76 0.0317-3.09-0.227-3.09-0.227-6.09-2.23-0.367-2.21-0.367-2.21-0.356-4.98-3e-3 -1.04-6e-3 -2.08-0.00909-3.14 0.0123-1.12 0.0247-2.25 0.0374-3.41 0.00187-1.15 0.00375-2.3 0.00568-3.48 0.00673-2.43 0.0207-4.86 0.0412-7.3 0.0311-3.74 0.041-7.47 0.0469-11.2 0.00917-2.36 0.0195-4.71 0.0312-7.07 0.00425-1.13 0.0085-2.25 0.0129-3.41 0.00961-1.03 0.0192-2.07 0.0291-3.13 0.00683-0.916 0.0137-1.83 0.0207-2.77 0.14-2.08 0.14-2.08 1.14-3.08z" fill="#0B75BB"/>
<path transform="translate(1111 362)" d="m0 0c4.67 4.26 7.36 9.14 8.29 15.4 0.232 7.58-0.93 13.5-6.1 19.1-3.9 2.43-6.73 3.36-11.3 3.06-4.62-1.33-8.07-3.15-11-7.08-3.18-6.02-3.5-12.2-1.89-18.7 1.39-4.24 2.86-7.83 5.88-11.2 5.39-2.64 10.6-3.06 16.1-0.625z" fill="#FDFEFF"/>
<path transform="translate(377,364)" d="m0 0c5.34 7.12 5.61 14.4 5 23-0.97 4.55-3.3 8.29-7.07 11.1-4.18 1.92-8.49 1.69-12.9 0.887-3.8-1.65-6.23-3.53-8.16-7.22-2.43-8.05-1.78-17.5 1.89-25 2.1-2.88 4.17-4.45 7.63-5.35 5.37-0.552 9.13-0.81 13.6 2.62z" fill="#FDFEFF"/>
<path transform="translate(1043,355)" d="m0 0c2.95-0.372 2.95-0.372 6.69-0.363 0.658-4.98e-4 1.32-9.97e-4 1.99-0.00151 1.39 0.00234 2.78 0.0121 4.18 0.0286 2.13 0.0236 4.27 0.0206 6.4 0.0139 10.5 0.0432 10.5 0.0432 12.7 2.32-0.375 2.62-0.375 2.62-1 5-4.42 1.11-8.72 1.08-13.2 1-2.59-0.0456-5.16-0.0473-7.75 0-1.66 1.66-1.36 3.78-1.56 6.06-0.144 1.63-0.289 3.26-0.438 4.94l19 1c1 2 1 2 1 9l-19 1c0.0116 1.43 0.0232 2.86 0.0352 4.34 0.00938 1.87 0.0185 3.73 0.0273 5.6 0.00838 0.946 0.0168 1.89 0.0254 2.87 0.00322 0.899 0.00645 1.8 0.00977 2.72 0.00524 0.833 0.0105 1.67 0.0159 2.52-0.114 1.95-0.114 1.95-1.11 2.95-5.84 0.371-5.84 0.371-8 0-2.09-3.14-2.25-3.86-2.26-7.42-0.0063-0.891-0.0126-1.78-0.0191-2.7 0.00405-0.959 0.0081-1.92 0.0123-2.91-0.00287-1.48-0.00287-1.48-0.0058-2.99-0.00136-2.09 0.00233-4.18 0.0107-6.26 0.0107-3.2 1.02e-4 -6.4-0.0127-9.6 0.00132-2.03 0.00388-4.05 0.00781-6.08-0.00405-0.959-0.0081-1.92-0.0123-2.91 0.0063-0.891 0.0126-1.78 0.0191-2.7 0.00159-0.784 0.00318-1.57 0.00482-2.37 0.254-2.05 0.254-2.05 2.25-5.05z" fill="#ED4C57"/>
<path transform="translate(1136,355)" d="m0 0c4.22-0.0247 8.44-0.0429 12.7-0.0549 1.43-0.00503 2.87-0.0118 4.3-0.0205 2.06-0.0121 4.13-0.0178 6.19-0.0222 1.24-0.00524 2.48-0.0105 3.76-0.0159 3.09 0.114 3.09 0.114 6.09 1.11-0.312 1.88-0.312 1.88-1 4l-3 2 1 2-21-2c0.144 2.29 0.289 4.58 0.438 6.94 0.0812 1.29 0.162 2.58 0.246 3.9-0.0344 3.02-0.0344 3.02 1.32 4.16 1.35 0.231 2.7 0.412 4.06 0.562l3.94 0.438v1l5 1v4c-1.37 0.342-2.75 0.673-4.12 1-0.766 0.186-1.53 0.371-2.32 0.562-2.55 0.438-2.55 0.438-8.55 0.438v20c-3.46 0.495-3.46 0.495-7 1-2.54-2.54-2.3-3.57-2.41-7.11-0.0388-1.06-0.0777-2.11-0.118-3.2-0.0308-1.14-0.0616-2.27-0.0933-3.44-0.0372-1.16-0.0744-2.31-0.113-3.51-0.23-7.75-0.36-15.5-0.387-23.2-0.00467-0.93-0.00935-1.86-0.0142-2.82 0.00209-0.854 0.00419-1.71 0.00635-2.59 0.00113-0.746 0.00226-1.49 0.00342-2.26 0.129-1.83 0.129-1.83 1.13-3.83z" fill="#F1434C"/>
<path transform="translate(326 205)" d="m0 0c0.949 0.0412 1.9 0.0825 2.88 0.125 1.25 2.49 0.777 3.41 0 6h-2l2 3v3l2 1-1 14 4 1v2c0.99-0.33 1.98-0.66 3-1l2 5 12 1 2 5 2 2-3 2h5l-1 2c-0.99 0.33-1.98 0.66-3 1v2c-7.59 0.33-15.2 0.66-23 1v-3h-7l1-3h-2c-0.192-5.94-0.371-11.9-0.537-17.8-0.0585-2.02-0.121-4.05-0.187-6.07-0.0939-2.9-0.175-5.81-0.253-8.71-0.0322-0.908-0.0644-1.82-0.0976-2.75-0.0202-0.841-0.0403-1.68-0.0611-2.55-0.0222-0.742-0.0444-1.48-0.0673-2.25 0.394-3.57 2.01-3.83 5.33-3.96z" fill="#0F71B9"/>
<path transform="translate(701 362)" d="m0 0c1.04-0.0168 2.08-0.0335 3.14-0.0508 3.57 0.426 5.31 1.02 8.04 3.36 2.35 5.57 2.37 11.1 2.38 17.1 0.0245 0.88 0.049 1.76 0.0742 2.67 0.0183 4.03-0.169 6.65-2 10.3-3.3 2.57-6.08 2.54-10.1 2.35-1.02-0.0087-1.02-0.0087-2.06-0.0176-5.02-0.124-5.02-0.124-7.31-2.42-0.259-3.04-0.259-3.04-0.266-6.91-0.00191-0.681-0.00383-1.36-0.0058-2.06-0.00136-1.44 0.00233-2.88 0.0107-4.32 0.0107-2.21 1.03e-4 -4.41-0.0127-6.62 0.00132-1.4 0.00388-2.79 0.00781-4.19 0.00226-1.28 0.00451-2.55 0.00684-3.87 0.472-5.54 3.19-5.34 8.07-5.35z" fill="#FDFEFF"/>
<path transform="translate(1061 116)" d="m0 0c1.25 0.0532 1.25 0.0532 2.52 0.107 0.797 0.0432 1.59 0.0864 2.41 0.131 0.731 0.0378 1.46 0.0756 2.21 0.115 1.85 0.335 1.85 0.335 3.85 2.33 0.145 2.91 0.186 5.72 0.125 8.62-0.00902 0.802-0.018 1.6-0.0273 2.43-0.0236 1.98-0.0595 3.96-0.0977 5.95l-2 1c-0.723 2.02-0.723 2.02-1.31 4.38-1.39 4.37-1.39 4.37-4 6.56-2.87 1.13-5.73 2.17-8.69 3.06v-2h-2v6c-2-2-2-2-3-5l-2-1c-0.0247-4.08-0.0429-8.15-0.0549-12.2-0.00503-1.39-0.0118-2.77-0.0205-4.16-0.0121-1.99-0.0173-3.99-0.0222-5.98-0.00524-1.2-0.0105-2.4-0.0159-3.63 0.114-3 0.114-3 1.11-6 3.43-1.72 7.24-0.9 11-0.688z" fill="#0B75BB"/>
<path transform="translate(913,355)" d="m0 0c2.38-0.125 2.38-0.125 5 0 2 2 2 2 2.23 5.81-3.17e-4 1.64-0.0117 3.28-0.0317 4.92-0.00283 0.863-0.00566 1.73-0.00858 2.61-0.0112 2.76-0.0363 5.52-0.0617 8.28-0.01 1.87-0.0192 3.74-0.0273 5.61-0.0221 4.59-0.0566 9.18-0.0977 13.8 1.07 0.0297 1.07 0.0297 2.17 0.0601 3.23 0.095 6.47 0.205 9.7 0.315 1.69 0.0464 1.69 0.0464 3.42 0.0938 1.61 0.058 1.61 0.058 3.26 0.117 0.995 0.0314 1.99 0.0628 3.02 0.0952 2.43 0.319 2.43 0.319 4.43 2.32 0.125 3.62 0.125 3.62 0 7-3.81 0.199-7.62 0.382-11.4 0.562-1.07 0.0561-2.14 0.112-3.24 0.17-6.25 0.287-12.1 0.234-18.3-0.732-4.75-4.75-2.14-23.2-2.18-29.6-0.00748-1.36-0.0181-2.71-0.032-4.07-0.018-1.94-0.0203-3.88-0.0222-5.82-0.00411-1.14-0.00822-2.27-0.0125-3.44 0.244-3.09 0.928-5.29 2.24-8.08z" fill="#F1434C"/>
<path transform="translate(837 355)" d="m0 0c0.723-4.98e-4 1.45-9.97e-4 2.19-0.00151 1.53 0.00234 3.05 0.0121 4.58 0.0286 2.34 0.0236 4.68 0.0206 7.02 0.0139 1.48 0.00558 2.97 0.0127 4.45 0.0215 1.05-0.00137 1.05-0.00137 2.13-0.00276 4.95 0.0725 4.95 0.0725 7.18 2.3l-1 5h-14c0.00786 1.89 0.00786 1.89 0.0159 3.82 0.0181 4.67 0.0296 9.34 0.0391 14 0.00504 2.02 0.0119 4.05 0.0205 6.07 0.0121 2.9 0.0178 5.81 0.0222 8.71 0.00516 0.908 0.0103 1.82 0.0156 2.75 1.13e-4 1.26 1.13e-4 1.26 2.29e-4 2.55 0.00222 0.742 0.00444 1.48 0.00673 2.25-0.12 1.83-0.12 1.83-1.12 3.83-1.81 0.75-1.81 0.75-4 1-1.35-0.624-2.69-1.29-4-2-0.0251-0.876-0.0501-1.75-0.0759-2.66-0.0962-3.31-0.195-6.62-0.296-9.93-0.0428-1.42-0.0845-2.84-0.125-4.26-0.25-8.74-0.659-17.4-1.5-26.1-0.99 0.0614-0.99 0.0614-2 0.124-2.39 0.13-4.62 0.163-7-0.124-2.06-2-2.06-2-3-4 2.69-3.84 6.16-3.42 10.4-3.36z" fill="#F0444C"/>
<path transform="translate(1134,117)" d="m0 0c6.12-0.0745 12.2-0.129 18.4-0.165 2.08-0.015 4.16-0.0355 6.24-0.0615 3-0.0366 6-0.0535 9-0.0667 0.921-0.0155 1.84-0.031 2.79-0.0469 8.91-0.00229 15.2 2.3 21.8 8.45 4.93 5.1 7.16 8.67 7.83 15.9 0.975 2.82 0.975 2.82 2 5h2v3c-4.9-0.42-6.69-2.53-10-6l-2.81-1.62-2.19-1.38v-3c-0.664-0.159-1.33-0.317-2.01-0.48-5.72-1.51-9.34-2.77-13-7.52v-2l-4-1 4-1v-3l-4-1 3-2c-1.18 0.23-1.18 0.23-2.38 0.465-4.5 0.665-8.96 0.889-13.5 1.1-1.32 0.0648-1.32 0.0648-2.66 0.131-2.15 0.105-4.31 0.206-6.46 0.307l2 3c-2.64 1.32-4.68 1.1-7.62 1.06-1-0.00902-2.01-0.018-3.04-0.0273-0.771-0.0116-1.54-0.0232-2.34-0.0352v-2c-3.66-1.65-6.81-2.34-10.8-2.62-0.976-0.0748-1.95-0.15-2.96-0.227-0.736-0.049-1.47-0.098-2.23-0.148v-1l13-1v-1z" fill="#0F72BA"/>
<path transform="translate(1084,363)" d="m0 0 5 3 3-2c1.25 3.74 0.174 5.29-1.22 8.83-2.59 7.18-2 13.3 1.22 20.2 2.16 3.02 4.6 4.64 8.25 5.59 4.55 0.713 4.55 0.713 8.84-0.645 1.91-0.941 1.91-0.941 4.91 0.0586l1-1 4 2 2-4 3 3c-1.43 1.15-2.87 2.3-4.31 3.44-0.801 0.638-1.6 1.28-2.43 1.93-4.24 3.05-8.48 2.88-13.5 2.94-0.739 0.029-1.48 0.058-2.24 0.0879-6.65 0.0762-10.7-1.81-15.7-6.37-5.63-6.66-7.97-12.2-7.86-21 0.997-5.77 2.53-11.2 6-16z" fill="#F1434C"/>
<path transform="translate(651,355)" d="m0 0 2 1v50h-5c-1.91-1.91-1.24-5.34-1.32-7.88-0.0208-0.687-0.0416-1.37-0.063-2.08-0.0656-2.2-0.124-4.4-0.183-6.6-0.0432-1.49-0.0868-2.98-0.131-4.47-0.107-3.66-0.209-7.31-0.307-11l-2 1c-1.04 3.29-1.96 6.58-2.79 9.92-1.54 5.47-3.55 7.81-8.21 11.1-2-3-2-3-1.82-5.11 1.96-7.43 4.35-14.7 6.82-22 0.344-1.02 0.688-2.05 1.04-3.1 0.337-0.968 0.673-1.94 1.02-2.93 0.3-0.871 0.601-1.74 0.91-2.64 2.31-5.08 4.57-5.73 10-5.26z" fill="#EF3033"/>
<path transform="translate(955,208)" d="m0 0h2l6 15 1-9h1c0.0606 0.82 0.121 1.64 0.184 2.48 0.126 1.62 0.126 1.62 0.254 3.27 0.0812 1.07 0.162 2.13 0.246 3.23 0.218 2.88 0.218 2.88 0.879 5.05 0.594 2.67 0.291 5.01 0 7.72-0.102 0.985-0.204 1.97-0.309 2.98-0.0838 0.748-0.168 1.5-0.254 2.27-6.38 2.13-13.9 1.74-20-1-1-1-1-1-1.11-3.5 0.00524-1.08 0.0105-2.17 0.0159-3.28 0.00322-1.17 0.00645-2.34 0.00977-3.54 0.00838-1.23 0.0168-2.46 0.0254-3.73 0.00451-1.24 0.00902-2.47 0.0137-3.74 0.0118-3.06 0.0283-6.13 0.0488-9.19l2 4 1-5 3 3c0.289-0.784 0.578-1.57 0.875-2.38 1.12-2.62 1.12-2.62 3.12-4.62z" fill="#0B75BB"/>
<path transform="translate(1227,355)" d="m0 0c1.65-0.0269 3.29-0.0463 4.94-0.0625 0.917-0.0116 1.83-0.0232 2.78-0.0352 2.29 0.0977 2.29 0.0977 3.29 1.1 0.89 6.31 1.14 12.5 1.1 18.8-0.00141 0.897-0.00283 1.79-0.00429 2.72-0.00554 2.83-0.0181 5.66-0.0309 8.5-0.00502 1.93-0.00958 3.87-0.0137 5.8-0.011 4.71-0.0282 9.42-0.0488 14.1-3.09 1.55-5.68 0.603-9 0-2.02-2.02-1.21-6.13-1.25-8.9-0.0329-1.63-0.0661-3.26-0.0996-4.88-0.0475-2.58-0.0919-5.16-0.131-7.74-0.0396-2.48-0.0912-4.96-0.144-7.44-0.00841-0.774-0.0168-1.55-0.0255-2.35 0.0529-4.31 0.0529-4.31-2.35-7.69 0.192-2.01 0.39-4.03 0.711-6.03 0.362-2.14 0.362-2.14 0.289-4.97v-1z" fill="#ED4C57"/>
<path transform="translate(1268 354)" d="m0 0c4.84 3.96 7.9 11.7 8.76 17.8l0.125 2.75-4 2v-3l-3-2c0 3.17 1.11 6.1 2 9.12 0.191 0.659 0.382 1.32 0.578 2 0.472 1.63 0.946 3.25 1.42 4.88-2.63 0.0538-5.25 0.0936-7.88 0.125-0.746 0.0168-1.49 0.0335-2.26 0.0508-1.96 0.0176-3.91-0.0726-5.86-0.176-3.69-3.69-3.69-3.69-5-6 0.406-5.8 2.17-10.9 4.25-16.2 0.287-0.802 0.575-1.6 0.871-2.43 1.39-3.64 2.39-5.89 5.36-8.49 2.52-0.828 2.52-0.828 4.63-0.371z" fill="#F1434C"/>
<path transform="translate(739 355)" d="m0 0c3 0.25 3 0.25 5 2.25 0.292 2.05 0.292 2.05 0.351 4.6 0.0263 0.954 0.0527 1.91 0.0798 2.89 0.0178 1.03 0.0357 2.07 0.054 3.13 0.0241 1.06 0.0482 2.12 0.0731 3.21 0.0484 2.24 0.0917 4.48 0.131 6.72 0.0618 3.44 0.145 6.87 0.23 10.3 0.0443 2.17 0.0873 4.34 0.129 6.52 0.0259 1.03 0.0518 2.07 0.0786 3.13 0.0137 0.954 0.0274 1.91 0.0416 2.89 0.0162 0.842 0.0323 1.68 0.049 2.55-0.216 2.05-0.216 2.05-2.22 4.05-2.94 0.438-2.94 0.438-6 0-3.98-4.49-3.42-9.6-3.36-15.3-7.48e-4 -1.48-7.48e-4 -1.48-0.00151-2.99 0.00234-2.08 0.012-4.16 0.0286-6.24 0.0237-3.19 0.0205-6.39 0.0139-9.58 0.00557-2.02 0.0127-4.04 0.0215-6.06-0.00137-1.44-0.00137-1.44-0.00276-2.9 0.00953-0.885 0.0191-1.77 0.0289-2.68 0.00461-0.78 0.00921-1.56 0.014-2.36 0.475-3.49 1.94-3.89 5.26-4.17z" fill="#ED4C57"/>
<path transform="translate(454 355)" d="m0 0c0.949 0.0412 1.9 0.0825 2.88 0.125v2h2l1 48c-6 2-6 2-9 2-2.12-3.18-2.25-3.98-2.26-7.62-0.0063-0.934-0.0126-1.87-0.0191-2.83 0.00405-1.01 0.0081-2.01 0.0123-3.05-0.00191-1.03-0.00383-2.07-0.0058-3.13-0.00136-2.19 0.00233-4.37 0.0107-6.56 0.0107-3.36 9.68e-5 -6.71-0.0127-10.1 0.00132-2.12 0.00388-4.24 0.00781-6.37-0.00405-1.01-0.0081-2.02-0.0123-3.06 0.0063-0.931 0.0126-1.86 0.0191-2.82 0.00159-0.821 0.00318-1.64 0.00482-2.49 0.462-3.65 1.9-3.99 5.38-4.13z" fill="#ED4C57"/>
<path transform="translate(973,355)" d="m0 0c2 2 2 2 2.24 4.1-0.00444 0.866-0.00888 1.73-0.0135 2.62-2.27e-4 1.47-2.27e-4 1.47-4.58e-4 2.97-0.0103 1.06-0.0206 2.12-0.0313 3.22-0.00283 1.08-0.00566 2.17-0.00858 3.29-0.0112 3.47-0.0363 6.95-0.0617 10.4-0.01 2.35-0.0192 4.7-0.0273 7.05-0.0221 5.77-0.0556 11.5-0.0977 17.3-6.05 0.195-6.05 0.195-8 0-2.44-2.44-2.26-3.06-2.27-6.4-0.00953-0.911-0.0191-1.82-0.0289-2.76 9.11e-4 -0.986 0.00182-1.97 0.00276-2.99-0.00429-1.01-0.00857-2.02-0.013-3.06-0.00575-2.14-0.00624-4.28-0.00191-6.42 0.00316-3.28-0.0203-6.56-0.0457-9.84-0.00227-2.08-0.00298-4.15-0.00195-6.23-0.00921-0.984-0.0184-1.97-0.0279-2.98 0.00623-0.914 0.0125-1.83 0.0189-2.77-6.29e-4 -0.804-0.00126-1.61-0.00191-2.44 0.855-4.78 3.93-5.66 8.37-5.09z" fill="#EC4C57"/>
<path transform="translate(523 355)" d="m0 0c0.772-9.57e-4 1.54-0.00191 2.34-0.0029 1.63-6.81e-4 3.26 0.00117 4.89 0.00534 2.51 0.00536 5.01 4.79e-5 7.52-0.00635 1.58 6.61e-4 3.17 0.00194 4.75 0.00391 0.754-0.00202 1.51-0.00405 2.29-0.00613 5.28 0.024 5.28 0.024 6.4 1.14 0.125 2.5 0.125 2.5 0 5-3.8 3.8-10.6 1.64-16 2l-1 43c-4-1-4-1-5-2-0.16-2.96-0.26-5.89-0.316-8.85-0.0208-0.886-0.0416-1.77-0.063-2.69-0.0656-2.84-0.124-5.69-0.183-8.53-0.0432-1.92-0.0868-3.85-0.131-5.77-0.107-4.72-0.209-9.45-0.307-14.2-3.07-1.53-6.12-0.913-9.49-0.742-3-0.308-4.29-1.28-6.51-3.26 0.375-1.94 0.375-1.94 1-4 3.11-1.55 6.4-1.14 9.82-1.13z" fill="#F03B41"/>
<path transform="translate(1345,355)" d="m0 0 8 1c0.883 6.04 1.13 11.9 1.1 18-0.00141 0.921-0.00283 1.84-0.00429 2.79-0.00555 2.91-0.0181 5.83-0.0309 8.74-0.00502 1.99-0.00958 3.97-0.0137 5.96-0.011 4.85-0.0282 9.69-0.0488 14.5-3.38 0.976-5.57 0.859-9 0-1.03-5.1-1.15-9.98-1.13-15.2-9.57e-4 -0.867-0.00191-1.73-0.0029-2.63-6.78e-4 -1.83 0.00115-3.65 0.00534-5.48 0.00536-2.79 3.85e-5 -5.58-0.00635-8.37 6.61e-4 -1.78 0.00194-3.56 0.00391-5.34-0.00202-0.83-0.00405-1.66-0.00613-2.52 0.016-3.97 0.154-7.64 1.14-11.5z" fill="#EC4C57"/>
<path transform="translate(712,366)" d="m0 0 2.25 0.5c2.94 0.619 2.94 0.619 6.75 0.5 4.23 6.35 4.41 12.7 3.6 20.1-1.39 6.74-5.47 11.2-10.5 15.7-6.12 3.51-12.8 3.5-19.6 3.35-1.23-0.0135-1.23-0.0135-2.49-0.0273-2-0.0233-4.01-0.0591-6.01-0.0977v-1h11l-1-6h-2l-1-4 2 1c2.5 0.176 4.94 0.277 7.44 0.312 0.681 0.029 1.36 0.058 2.06 0.0879 2.98 0.0379 5-0.044 7.46-1.8 1.65-4.11 1.39-8.09 1.29-12.5-0.00516-0.886-0.0103-1.77-0.0156-2.68-0.0546-4.58-0.313-8.94-1.23-13.4z" fill="#F13B41"/>
<path transform="translate(655,156)" d="m0 0 2 1v3c0.724 0.0374 1.45 0.0748 2.2 0.113 5.67 0.385 9.95 0.871 14.8 3.89l-3 2c0.495 0.784 0.99 1.57 1.5 2.38 1.5 2.62 1.5 2.62 1.5 4.62l2.88 0.938c3.12 1.06 3.12 1.06 5.12 2.06v2l2 1v2h-15v2h-10l-2-5h-2c-0.337-1.6-0.669-3.21-1-4.81-0.186-0.893-0.371-1.79-0.562-2.71-0.438-2.48-0.438-2.48-0.438-5.48l2-2c0.167-3.58 0.167-3.58 0-7z" fill="#0F72B9"/>
<path transform="translate(788 378)" d="m0 0c0.746-0.00387 1.49-0.00773 2.26-0.0117 5.55 0.0101 5.55 0.0101 6.68 1.14 0.158 1.92 0.251 3.85 0.316 5.79 0.0419 1.17 0.0838 2.34 0.127 3.54 0.0393 1.23 0.0786 2.46 0.119 3.73 0.0432 1.24 0.0864 2.47 0.131 3.74 0.106 3.06 0.208 6.13 0.307 9.19l-4 2-5-5c-0.433 0.474-0.866 0.949-1.31 1.44-3.67 3.4-8.36 2.88-13.1 2.86-2.61-0.301-2.61-0.301-5.3-2.3-0.433-0.66-0.866-1.32-1.31-2l2-3 1 3 2 1v-5l2.56 0.688c4.35 0.396 6.63-0.605 10.4-2.69 2.67-2.5 2.97-3.56 3.19-7.25-0.0619-0.908-0.124-1.82-0.188-2.75-0.615 0.0232-1.23 0.0464-1.86 0.0703-1.21 0.0271-1.21 0.0271-2.45 0.0547-0.801 0.0232-1.6 0.0464-2.43 0.0703-2.26-0.195-2.26-0.195-5.26-2.2 0.375-2.44 0.375-2.44 1-5 3.17-1.59 6.58-1.14 10.1-1.12z" fill="#F13B40"/>
<path transform="translate(812,355)" d="m0 0c3.12 0.375 3.12 0.375 6 1 0.168 6.64 0.328 13.3 0.482 19.9 0.0534 2.26 0.109 4.52 0.166 6.78 0.0819 3.24 0.157 6.49 0.231 9.73 0.027 1.01 0.0541 2.03 0.0819 3.07 0.0201 0.941 0.0402 1.88 0.0609 2.85 0.02 0.828 0.04 1.66 0.0606 2.51-0.0823 2.15-0.0823 2.15-1.08 5.15-2.31 0.688-2.31 0.688-5 1-2.16-1.56-2.91-2.49-3.37-5.13 9.44e-4 -1.23 9.44e-4 -1.23 0.00191-2.49-0.00623-0.934-0.0125-1.87-0.0189-2.83 0.00921-1.01 0.0184-2.01 0.0279-3.05-4.98e-4 -1.03-9.97e-4 -2.07-0.00151-3.13 0.00234-2.19 0.0121-4.37 0.0286-6.56 0.0236-3.36 0.0206-6.71 0.0139-10.1 0.00558-2.12 0.0127-4.24 0.0215-6.37-9.11e-4 -1.01-0.00182-2.02-0.00276-3.06 0.00953-0.931 0.0191-1.86 0.0289-2.82 0.00461-0.821 0.00921-1.64 0.014-2.49 0.261-2 0.261-2 2.26-4z" fill="#F13A40"/>
<path transform="translate(501 356)" d="m0 0c3.53 2.91 5.84 6.56 7.37 10.9l-1 3c-6.26-1.53-8.5-2.75-12-8-3.28-0.481-3.28-0.481-7-0.375-1.26-0.00773-2.52-0.0155-3.81-0.0234-1.05 0.131-2.1 0.263-3.19 0.398-2.29 3.44-2.18 4.99-2 9l4 2v2h5l-5 4 4 2v2c-5.77-0.398-9.49-1.04-14-5-0.875-2.19-0.875-2.19-1-5-0.049-0.684-0.098-1.37-0.148-2.07-0.239-5.42 0.369-9.23 3.15-13.9 6.66-3.76 18.7-3.87 25.6-0.867z" fill="#EF3033"/>
<path transform="translate(1324,356)" d="m0 0c3.84 3.21 6.06 6.4 8 11v2c-2.12 0.812-2.12 0.812-5 1-3.41-2.41-5.68-4.53-8-8-1.61 0.0873-3.21 0.196-4.81 0.312-0.893 0.058-1.79 0.116-2.71 0.176-2.83 0.584-3.81 1.18-5.48 3.51-0.25 3.13-0.25 3.13 0 6h2l-1 5c-6.38 0.481-6.38 0.481-8.94-1.5-2.07-4.87-1.62-9.01 0.188-13.8 5.55-8.53 16.9-9.74 25.8-5.69z" fill="#F13B41"/>
<path transform="translate(889 365)" d="m0 0c4.37 3.04 4.83 6.25 6.06 11.3 0.488 1.8 0.981 3.61 1.48 5.41 0.247 0.91 0.493 1.82 0.747 2.76 1.41 4.92 3.18 9.7 4.95 14.5 1.83 5.02 1.83 5.02 1.83 7.21h-8v-2h-2l-2-9-17-1c3-5 3-5 4-6 2.02-0.0724 4.04-0.0838 6.06-0.0625 1.66 0.0135 1.66 0.0135 3.35 0.0273 0.855 0.0116 1.71 0.0232 2.59 0.0352l-1.09-3.8c-0.469-1.65-0.938-3.3-1.41-4.95-0.238-0.825-0.477-1.65-0.723-2.5-0.226-0.799-0.451-1.6-0.684-2.42-0.209-0.733-0.419-1.47-0.635-2.22-0.459-2.11-0.459-2.11-0.459-6.11l-2-1c2-1 2-1 4.94-0.133z" fill="#EF3033"/>
<path transform="translate(1327,127)" d="m0 0 1-2 8 4v2c0.949 0.268 1.9 0.536 2.88 0.812 3.12 1.19 3.12 1.19 5.12 4.19l-2 2 1.5 1.88c1.5 2.12 1.5 2.12 1.5 4.12 0.99 0.33 1.98 0.66 3 1v3c0.984 2.33 2.1 4.58 3.22 6.84 0.777 2.16 0.777 2.16-0.223 5.16l-0.688-2.44c-0.433-0.846-0.866-1.69-1.31-2.56-2.55-0.894-2.55-0.894-5-1l-1-8h-3v-6h-3l1 1.69c1.13 2.62 1.16 4.49 1 7.31l-2-2 1-2-2.12-0.688c-3.62-1.65-5.96-3.6-8.88-6.31v-2l-4-1v-2h-5l-0.312-1.94-0.688-2.06c-0.99-0.33-1.98-0.66-3-1v-2c8.56-1.96 8.56-1.96 13 1z" fill="#0F72BA"/>
<path transform="translate(363 356)" d="m0 0c2.34 1.93 2.44 3.49 2.75 6.44l-3.25 0.562c-3.23 0.904-4.47 1.96-6.12 4.88-3.44 7.55-4.13 16.5-1.73 24.6 0.94 2.08 1.92 4.06 3.11 6.01h-2l-1 3c-2.7-1.17-4.57-2.18-5.96-4.84-4.25-11.3-3.74-20.9 0.965-32.2 2.34-3.8 4.8-6.28 8.62-8.56 2.38-0.438 2.38-0.438 4.62 0.125z" fill="#EF3033"/>
<path transform="translate(266 355)" d="m0 0c1.05-0.00287 1.05-0.00287 2.13-0.0058 1.48-0.00136 2.96 0.00232 4.44 0.0107 2.27 0.0107 4.54 8.85e-5 6.81-0.0127 1.44 0.00132 2.88 0.00388 4.31 0.00781 1.31 0.00226 2.62 0.00451 3.97 0.00684 3.12 0.259 3.12 0.259 5.12 2.26 0.125 2.62 0.125 2.62 0 5-1.16 0.0297-1.16 0.0297-2.34 0.0601-3.49 0.0952-6.98 0.205-10.5 0.315-1.21 0.0309-2.43 0.0619-3.68 0.0938-1.75 0.058-1.75 0.058-3.53 0.117-1.07 0.0314-2.15 0.0628-3.25 0.0952-2.94 0.135-2.94 0.135-5.73 2.32-0.99-0.33-1.98-0.66-3-1-2.23 3.34-2.29 4.63-2.41 8.54-0.0387 1.07-0.0773 2.15-0.117 3.25-0.0309 1.12-0.0619 2.24-0.0938 3.39-0.0387 1.13-0.0773 2.26-0.117 3.43-0.0943 2.79-0.18 5.59-0.258 8.38h-1c-0.217-4.8-0.414-9.61-0.592-14.4-0.0635-1.64-0.132-3.27-0.207-4.91-0.106-2.35-0.193-4.7-0.275-7.04-0.056-1.1-0.056-1.1-0.113-2.22-0.0614-2.06-0.0614-2.06 0.187-5.41 3.74-2.5 5.75-2.26 10.2-2.27z" fill="#F13A40"/>
<path transform="translate(1145,362)" d="m0 0c2.42-0.0541 4.83-0.0937 7.25-0.125 0.682-0.0168 1.36-0.0335 2.07-0.0508 3.73-0.0362 6.55 0.033 9.68 2.18 2.18 2.7 2.08 4.87 1.75 8.19l-0.75 3.81c-3.14 1.57-6.54 1.46-10 1.69-0.737 0.0599-1.47 0.12-2.23 0.182-1.92 0.128-3.84 0.137-5.77 0.131-2-2-2-2-2.2-5.26 0.0232-1.28 0.0464-2.55 0.0703-3.87 0.018-1.28 0.0361-2.56 0.0547-3.88 0.0232-0.987 0.0464-1.97 0.0703-2.99z" fill="#FDFEFF"/>
<path transform="translate(1051,207)" d="m0 0c5.62-0.25 5.62-0.25 9 2 1.19 2.12 1.19 2.12 2 4h2c0.144 0.928 0.289 1.86 0.438 2.81 0.484 3.19 0.484 3.19 1.56 6.19v2c0.322 2.33 0.655 4.67 1 7h-9l-1-3c-0.99-0.33-1.98-0.66-3-1v-2l-2.25-0.312c-2.92-0.73-4.48-1.76-6.75-3.69l1-1-3-2c-0.688-3.12-0.688-3.12-1-6 1.08 0.218 1.08 0.218 2.18 0.441 1.79 0.355 3.59 0.698 5.39 1.02 1.26 0.234 1.26 0.234 2.55 0.473 0.848 0.153 1.7 0.307 2.57 0.465 2.3 0.598 2.3 0.598 5.3 2.6l-1-3h-2v-3c-2.97-0.495-2.97-0.495-6-1v-3z" fill="#0B75BB"/>
<path transform="translate(849,367)" d="m0 0h1c0.0247 5.23 0.0429 10.5 0.0549 15.7 0.00504 1.78 0.0119 3.56 0.0205 5.34 0.0121 2.56 0.0178 5.11 0.0222 7.67 0.00516 0.799 0.0103 1.6 0.0156 2.42 5.75e-4 5.64 5.75e-4 5.64-1.11 7.87-1.81 0.75-1.81 0.75-4 1l-4-2-1-33 4 2 1-3 3 6 1-10z" fill="#ED3C42"/>
<path transform="translate(1196,355)" d="m0 0 2 3h-5l-0.5 3.81c-0.0928 0.708-0.186 1.42-0.281 2.14-0.272 2.2-0.272 2.2-0.219 5.04l5-1v3h-3v35h-5c-1.71-2.98-2.25-5.13-2.27-8.55-0.00953-0.894-0.0191-1.79-0.0289-2.71 9.11e-4 -0.957 0.00182-1.91 0.00276-2.9-0.00429-0.988-0.00857-1.98-0.013-3-0.00574-2.09-0.00625-4.17-0.00191-6.26 0.00317-3.2-0.0203-6.4-0.0457-9.61-0.00227-2.03-0.00298-4.05-0.00195-6.08-0.00921-0.961-0.0184-1.92-0.0279-2.91 0.00623-0.888 0.0125-1.78 0.0189-2.69-6.29e-4 -0.783-0.00126-1.57-0.00191-2.37 0.123-0.634 0.247-1.27 0.374-1.92 3.45-2.3 4.95-2.43 9-2z" fill="#F1444D"/>
<path transform="translate(622,373)" d="m0 0c1.63 3.11 2.91 6.27 4.12 9.56 0.353 0.95 0.706 1.9 1.07 2.88 0.805 2.56 0.805 2.56 0.805 5.56h2v2c2.58 0.921 3.59 1.19 6.14 0.0234 0.614-0.338 1.23-0.675 1.86-1.02-0.427 1.59-0.867 3.17-1.31 4.75-0.244 0.882-0.487 1.76-0.738 2.67-0.97 2.64-2.16 4.43-3.95 6.58-2.25-0.125-2.25-0.125-5-1-3.9-4.88-5.8-10.3-7.81-16.1-0.324-0.893-0.648-1.79-0.982-2.71-0.301-0.862-0.602-1.72-0.912-2.61-0.41-1.17-0.41-1.17-0.827-2.36-0.516-2.43-0.256-3.86 0.534-6.19h5v-2z" fill="#F13B41"/>
<path transform="translate(470,389)" d="m0 0c1.88 0.188 1.88 0.188 4 1l0.938 2.44c0.813 2.68 0.813 2.68 3.06 3.75 7.87 2.44 7.87 2.44 15.9 2.06l2.12-1.25 2.31-1.12 1.69-0.875 4 4c-1.34 4.63-1.34 4.63-4.02 6.14-4.01 1.16-7.76 1.27-11.9 1.3-0.786 0.0329-1.57 0.0657-2.38 0.0996-4.15 0.0382-6.84-0.224-10.1-2.88-3.64-3.79-5.44-6.74-5.74-12l0.188-2.62z" fill="#F13B41"/>
<path transform="translate(565 355)" d="m0 0c0.705 0.00405 1.41 0.0081 2.14 0.0123 0.725-0.00191 1.45-0.00383 2.2-0.0058 1.53-0.00136 3.07 0.00233 4.6 0.0107 2.35 0.0107 4.7 1.04e-4 7.05-0.0127 1.49 0.00132 2.98 0.00388 4.46 0.00781 0.705-0.00405 1.41-0.0081 2.14-0.0123 4.98 0.048 4.98 0.048 7.21 2.28-0.375 2.62-0.375 2.62-1 5-4.27 0.029-8.54 0.0468-12.8 0.0625-1.82 0.0126-1.82 0.0126-3.68 0.0254-1.75 0.00483-1.75 0.00483-3.53 0.00977-1.07 0.00524-2.15 0.0105-3.25 0.0159-2.73-0.114-2.73-0.114-5.73-1.11l-1-2-2 5h-2v12h-1c-0.976-4.1-1.17-7.98-1.19-12.2-0.0142-1.23-0.0284-2.46-0.043-3.73 0.396-5.29 2.65-5.31 7.44-5.36z" fill="#F13A40"/>
<path transform="translate(906 116)" d="m0 0c1.88 0.812 1.88 0.812 2.88 2.81l1.88 0.312c2.12 0.688 2.12 0.688 3.88 2.94 1.83 4.02 1.72 6.43 0.25 10.6l-1 2.19c-5.75-0.875-5.75-0.875-8-2-1.04 3.38-1.08 6.48-1 10l-2-3-1 32h-1c-0.0759-7.49-0.129-15-0.165-22.5-0.0151-2.55-0.0356-5.1-0.0615-7.65-0.0363-3.66-0.0534-7.32-0.0667-11-0.0155-1.14-0.031-2.29-0.0469-3.47-2.27e-4 -1.06-4.53e-4 -2.12-6.87e-4 -3.21-0.00666-0.935-0.0133-1.87-0.0202-2.83 0.361-2.37 0.361-2.37 1.75-4.21 1.61-1.16 1.61-1.16 3.74-0.975z" fill="#0B75BB"/>
<path transform="translate(1043,355)" d="m0 0c2.95-0.372 2.95-0.372 6.69-0.363 0.658-4.98e-4 1.32-9.97e-4 1.99-0.00151 1.39 0.00234 2.78 0.0121 4.18 0.0286 2.13 0.0236 4.27 0.0206 6.4 0.0139 10.5 0.0432 10.5 0.0432 12.7 2.32-0.375 2.62-0.375 2.62-1 5-5.06 1.28-10 1.03-15.2 0.873-3.78-0.0604-6.59 0.00161-9.79 2.13v-2c-0.99 0.33-1.98 0.66-3 1l-1 7h-1c-2.61-8.7-2.61-8.7-3-13l2-3z" fill="#F1434C"/>
<path transform="translate(1254,381)" d="m0 0c0.454 0.619 0.908 1.24 1.38 1.88 1.6 2.18 1.6 2.18 3.62 4.12 2.57 0.306 5.05 0.511 7.62 0.625 1.06 0.058 1.06 0.058 2.14 0.117 1.74 0.0943 3.49 0.177 5.23 0.258l1 6h-19l-1 7c-1.25 2.94-1.25 2.94-3 5-2.61 0.129-2.61 0.129-5 0 1.09-5.68 2.26-11.3 3.5-17l0.719-3.31c0.781-2.69 0.781-2.69 2.78-4.69z" fill="#EF3033"/>
<path transform="translate(1344,360)" d="m0 0h3l-1 29h2l1-2 1 9h2l1-32h1v42c-3.84 0.959-5.32 0.919-9 0-1.05-5.16-1.13-10.1-1.1-15.3 0.00141-0.879 0.00283-1.76 0.00429-2.66 0.00557-2.79 0.0181-5.58 0.0309-8.37 0.00502-1.9 0.00958-3.8 0.0137-5.7 0.011-4.64 0.0282-9.28 0.0488-13.9z" fill="#F0454E"/>
<path transform="translate(430,356)" d="m0 0c3.68 3.47 6.4 7.19 8 12l-7 2c-0.424-0.578-0.848-1.16-1.29-1.75-3.66-4.85-3.66-4.85-9.15-6.81-1.76 0.278-1.76 0.278-3.56 0.562-7.72 1.18-7.72 1.18-11-1 0.989-2.7 1.63-3.8 4.19-5.19 6.75-1.95 13.2-2.68 19.8 0.188z" fill="#F13B41"/>
<path transform="translate(1116 356)" d="m0 0c1.16 1.62 1.16 1.62 0.977 4.24-0.812 2.38-0.812 2.38-2.81 3.38l-2.69-0.938c-5.81-1.86-10.7-1.46-16.3 0.938l-1 2c-0.99-0.33-1.98-0.66-3-1l-2 2c-3-2-3-2-4-5 4.42-4.93 9.06-7.32 15.7-7.94 11.6-0.317 11.6-0.317 15.1 2.32z" fill="#F13C42"/>
<path transform="translate(1019,355)" d="m0 0c3.38-0.125 3.38-0.125 7 0 2.68 2.68 2.26 4.04 2.27 7.78 0.00258 1.15 0.00516 2.31 0.00781 3.49-0.00773 1.21-0.0155 2.42-0.0234 3.67 0.00773 1.21 0.0155 2.41 0.0234 3.65-0.00258 1.15-0.00516 2.31-0.00781 3.5-0.00226 1.06-0.00451 2.12-0.00684 3.21-0.259 2.7-0.259 2.7-2.26 5.7l-1-7-4-1v-2h-2c-0.196-2.56-0.382-5.12-0.562-7.69-0.0561-0.721-0.112-1.44-0.17-2.19-0.267-3.9-0.276-7.34 0.732-11.1z" fill="#ED4C57"/>
<path transform="translate(603,380)" d="m0 0 2 2h3v2c0.99-0.33 1.98-0.66 3-1 0.868 5.2 1.13 10.2 1.06 15.4-0.00451 0.732-0.00902 1.46-0.0137 2.22-0.0116 1.78-0.0296 3.56-0.0488 5.35-2.81 0.688-2.81 0.688-6 1-1.68-1.13-1.68-1.13-3-3-0.341-2.54-0.341-2.54-0.293-5.54 0.00967-1.07 0.0193-2.15 0.0293-3.25 0.0251-1.12 0.0503-2.24 0.0762-3.39 0.0203-1.7 0.0203-1.7 0.041-3.43 0.0354-2.8 0.0848-5.59 0.146-8.38z" fill="#F13A40"/>
<path transform="translate(1e3 362)" d="m0 0c3.47 4.07 6.09 8.36 8.69 13 0.403 0.699 0.806 1.4 1.22 2.12 2.03 3.61 3.61 6.7 4.09 10.9-0.99 0.33-1.98 0.66-3 1l1 4c-4.12-1.37-5.01-4.12-6.94-7.75-2.85-5.29-5.77-9.96-10.1-14.2l1-3c0.99-0.33 1.98-0.66 3-1l1-5z" fill="#F1444D"/>
<path transform="translate(690,219)" d="m0 0h64l1 3c-7.72 0.154-15.4 0.302-23.2 0.443-3.58 0.0655-7.17 0.133-10.8 0.205-3.46 0.0697-6.92 0.134-10.4 0.195-1.96 0.0356-3.92 0.0768-5.87 0.118-1.8 0.0301-1.8 0.0301-3.64 0.0609-1.58 0.03-1.58 0.03-3.19 0.0606-3.08-0.0846-5.97-0.504-9-1.08l1-3z" fill="#006FB4"/>
<path transform="translate(1193,357)" d="m0 0c2.76-0.043 2.76-0.043 6 1 1.85 2.68 2.82 5.62 3.88 8.69 0.46 1.21 0.46 1.21 0.93 2.44 1.62 4.42 2.58 8.1 2.2 12.9-6.84-1.98-6.84-1.98-9-5-1.19-3.19-1.19-3.19-2-6h2v-3l-5 1c-0.925-4.72-1.23-7.67 1-12z" fill="#F1434C"/>
<path transform="translate(989,355)" d="m0 0c2.93-0.298 5.14-0.507 8 0 3.48 3.04 4.88 4.74 5.31 9.38l-0.312 2.62-4 1 1 3c-0.438 2.19-0.438 2.19-1 4l-5-2v-3l-3 3c-0.365-2.06-0.717-4.12-1.06-6.19-0.296-1.72-0.296-1.72-0.598-3.48-0.318-3.12-0.148-5.33 0.66-8.33z" fill="#ED4B56"/>
<path transform="translate(377,395)" d="m0 0 3 2c-0.586 6.15-0.586 6.15-1 8-5.07 2.53-13.4 1.72-19 1-3.18-1.33-4.57-2.51-7-5l1-2 1 1 2-4c0.71 0.324 1.42 0.647 2.15 0.98 2.99 1.07 5.25 1.32 8.41 1.33 1.39 0.0251 1.39 0.0251 2.82 0.0508 3.01-0.418 4.38-1.36 6.62-3.36z" fill="#F13C42"/>
<path transform="translate(1300 388)" d="m0 0c2.4 1.02 3.01 1.99 4.34 4.21 2.33 3.54 4.63 5.05 8.62 6.62v2c0.99 0.33 1.98 0.66 3 1v2c-3.72 2.48-5.37 2.25-9.64 1.68-5.17-1.49-8.45-5.33-11.4-9.68-0.312-3.06-0.312-3.06 0-6 3-2 3-2 5.04-1.84z" fill="#F2444D"/>
<path transform="translate(1265,364)" d="m0 0c2 1 2 1 2.87 3.12 0.283 0.91 0.566 1.82 0.857 2.76 0.309 0.985 0.619 1.97 0.938 2.98 0.317 1.04 0.634 2.07 0.961 3.14l0.984 3.14c2.39 7.67 2.39 7.67 2.39 8.86h-14c-1.33-3.99-0.00645-6.53 1.38-10.3 1.63-4.53 2.99-8.89 3.62-13.7z" fill="#FDFEFF"/>
<path transform="translate(950,122)" d="m0 0c4.45 1.93 5.95 4.75 8 9h-3c-0.99 0.33-1.98 0.66-3 1-0.55 4.33-1.01 8.5-0.938 12.9-0.0625 3.12-0.0625 3.12-2.06 6.12h-4c-0.058-3.94-0.0936-7.87-0.125-11.8-0.0168-1.12-0.0335-2.24-0.0508-3.39-0.00645-1.07-0.0129-2.15-0.0195-3.25-0.0105-0.99-0.0209-1.98-0.0317-3 0.227-2.54 0.227-2.54 2.23-5.54v2h4l-1-4z" fill="#0B75BB"/>
<path transform="translate(884,366)" d="m0 0h2c0.84 2.91 1.67 5.83 2.5 8.75 0.238 0.825 0.477 1.65 0.723 2.5 0.226 0.799 0.451 1.6 0.684 2.42 0.209 0.733 0.419 1.47 0.635 2.22 0.459 2.11 0.459 2.11 0.459 6.11h-12c-1.19-4.75-0.128-7.65 1.38-12.1 0.235-0.728 0.469-1.46 0.711-2.21 1.71-5.27 1.71-5.27 2.91-7.67z" fill="#FCFDFE"/>
<path transform="translate(647,376)" d="m0 0 6 3v27h-5c-1-1-1-1-1.11-3.78 0.00524-1.21 0.0105-2.42 0.0159-3.67 0.00322-1.31 0.00645-2.61 0.00977-3.96 0.00836-1.39 0.0168-2.78 0.0254-4.17 0.00501-1.39 0.00958-2.79 0.0137-4.18 0.0118-3.42 0.0283-6.84 0.0488-10.3z" fill="#EF3033"/>
<path transform="translate(1260,359)" d="m0 0 4 3c-0.293 1.99-0.586 3.97-0.879 5.96-0.26 2.25-0.26 2.25 0.879 5.04-0.732 2.63-1.52 5.13-2.44 7.69-0.243 0.702-0.486 1.4-0.736 2.13-0.601 1.73-1.21 3.46-1.83 5.19-2.92-1.95-4.36-2.96-6-6 0.411-5.56 2.04-10.3 4.06-15.4 0.282-0.732 0.563-1.46 0.854-2.22 0.688-1.78 1.39-3.57 2.08-5.35z" fill="#F13B41"/>
<path transform="translate(651,355)" d="m0 0 2 1v23h-5c-1.99-11.6-1.99-11.6-2.5-16.6-0.265-3.55-0.265-3.55-2.5-6.44 2.74-1.37 4.97-1.13 8-1z" fill="#F23C42"/>
<path transform="translate(304 355)" d="m0 0c2.94 0.188 2.94 0.188 3.94 1.19 0.0865 1.42 0.107 2.84 0.0977 4.25-0.00322 0.854-0.00645 1.71-0.00977 2.59-0.00838 0.898-0.0168 1.8-0.0254 2.72-0.00451 0.902-0.00902 1.8-0.0137 2.73-0.0118 2.24-0.0283 4.47-0.0488 6.71-2.5-1.38-2.5-1.38-5-3v-2l-4 1c-0.0538-2.29-0.0927-4.58-0.125-6.88-0.0232-1.28-0.0464-2.55-0.0703-3.87 0.26-4.33 0.899-5.18 5.26-5.45z" fill="#ED4C56"/>
<path transform="translate(764,387)" d="m0 0h2l1.19 3.19c1.25 2.99 2.13 4.12 4.56 6.5l2.25 2.31c-0.188 2.31-0.188 2.31-1 4l-4-1 1 3c-3.24-1.44-5.62-3.26-8.25-5.62-0.706-0.632-1.41-1.26-2.14-1.91-0.531-0.482-1.06-0.964-1.61-1.46 0.278-0.897 0.278-0.897 0.562-1.81 0.658-2.35 0.658-2.35-0.562-5.19 3-1 3-1 5-1l1-1z" fill="#F2434C"/>
<path transform="translate(904,172)" d="m0 0h1c1.91 11.5 1.11 23.3 0.625 34.9-0.0308 0.874-0.0616 1.75-0.0933 2.65-0.0388 0.814-0.0777 1.63-0.118 2.47-0.0314 0.726-0.0628 1.45-0.0952 2.2-0.319 1.81-0.319 1.81-2.32 3.81-0.778-2.76-1.13-5.23-1.15-8.09-0.00638-0.794-0.0128-1.59-0.0193-2.41-0.00111-0.848-0.00223-1.7-0.00337-2.57-0.00333-0.877-0.00666-1.75-0.0101-2.66-0.00505-1.85-0.00741-3.7-0.00725-5.55-0.00219-2.84-0.0204-5.68-0.0393-8.52-0.00293-1.8-0.00492-3.6-0.00586-5.39-0.00719-0.852-0.0144-1.7-0.0218-2.58 0.0234-5.99 0.0234-5.99 2.25-8.22z" fill="#006FB4"/>
<path transform="translate(1324,392)" d="m0 0c2.72 0.905 5.35 1.92 8 3-0.474 4.27-2.88 6.25-6 9-3.03 1.85-5.22 2.23-8.75 2.12-0.799-0.018-1.6-0.0361-2.42-0.0547-0.603-0.0232-1.21-0.0464-1.83-0.0703l2-4-2-1v-2l3.31-0.312c4.13-0.734 4.13-0.734 6.69-3.69l1-3z" fill="#F13C42"/>
<path transform="translate(1188,380)" d="m0 0 5 2 1 24h-5c-1.94-3.24-2.19-5.46-1.98-9.2l0.156-2.97c0.0645-1.02 0.129-2.03 0.195-3.08l0.172-3.12c0.141-2.54 0.293-5.08 0.453-7.62z" fill="#EE3033"/>
<path transform="translate(530,369)" d="m0 0h1c0.049 0.906 0.098 1.81 0.148 2.75 0.428 7.95 0.428 7.95 1.91 15.8 1.55 6.05 1.1 12.3 0.938 18.5-3.88-0.875-3.88-0.875-5-2-0.0996-1.57-0.131-3.14-0.133-4.71-0.00193-0.974-0.00387-1.95-0.00586-2.95 0.00451-1.04 0.00902-2.08 0.0137-3.15 0.00193-1.04 0.00387-2.09 0.00586-3.17 0.0395-7.05 0.275-14 1.12-21z" fill="#EF3033"/>
<path transform="translate(377,355)" d="m0 0c0.99 0.33 1.98 0.66 3 1v3l-2-1v5c-1.96-0.114-3.92-0.241-5.88-0.375-1.09-0.0696-2.18-0.139-3.3-0.211-2.82-0.414-2.82-0.414-4.82-2.41v-3l-1-2c4.27-2.14 9.54-1.28 14 0z" fill="#F13B41"/>
<path transform="translate(1118,363)" d="m0 0h6c4.05 8.81 4.91 18.5 3 28-0.99-0.33-1.98-0.66-3-1 0.0954-0.713 0.191-1.43 0.289-2.16 0.673-5.81 1.18-10.4-1.29-15.8l-2.62-1.56-2.38-1.44c-0.312-3.19-0.312-3.19 0-6z" fill="#F2424A"/>
<path transform="translate(476,371)" d="m0 0c4.75 0.875 4.75 0.875 7 2v2h5l-5 4 4 2v2c-5.74-0.396-9.55-0.999-14-5-0.375-2.75-0.375-2.75 0-5h2l1-2z" fill="#F13B41"/>
<path transform="translate(835 355)" d="m0 0c0.879 0.0258 1.76 0.0516 2.66 0.0781 3.24 0.216 6.38 0.615 9.59 1.17-0.639 0.248-1.28 0.495-1.94 0.75-2.26 1.05-2.26 1.05-2.69 3.33-0.122 0.634-0.245 1.27-0.371 1.92-1.94 0.108-3.87 0.186-5.81 0.25-1.62 0.0696-1.62 0.0696-3.27 0.141-2.92-0.391-2.92-0.391-4.8-2.41-0.551-0.982-0.551-0.982-1.11-1.98 2.43-3 3.94-3.37 7.75-3.25z" fill="#F13B41"/>
<path transform="translate(848,355)" d="m0 0c2.46-0.0538 4.92-0.0936 7.38-0.125 1.05-0.0251 1.05-0.0251 2.12-0.0508 1.84-0.0177 3.67 0.0727 5.51 0.176l2 2-1 5h-14v-4l-2-1v-2z" fill="#F13C42"/>
<path transform="translate(498,356)" d="m0 0c4.22 1.56 6.4 4.42 9 8 0.812 2.88 0.812 2.88 1 5-2 1-2 1-4.94 0.25-2.85-1.16-4.24-1.85-6.06-4.25-1.26-3.77-0.371-5.37 1-9z" fill="#F13B41"/>
<path transform="translate(1193,357)" d="m0 0c2.88 0.188 2.88 0.188 6 1 2.24 3.57 2.19 6.87 2 11l-2.25-0.562c-2.7-0.43-4.2-0.289-6.75 0.562-0.925-4.72-1.23-7.67 1-12z" fill="#ED4C57"/>
<path transform="translate(1010,376)" d="m0 0c2.68 2.32 3.66 4.32 4.69 7.69 0.377 1.21 0.377 1.21 0.762 2.45 0.182 0.615 0.364 1.23 0.551 1.86-0.99 0.33-1.98 0.66-3 1l1 4c-3-1-3-1-4.61-3.72-0.522-1.1-1.04-2.2-1.58-3.34-0.53-1.1-1.06-2.21-1.61-3.35-0.398-0.855-0.797-1.71-1.21-2.59l5 1v-5z" fill="#F23D43"/>
<path transform="translate(1049,151)" d="m0 0h2c0.198 4.54 0.381 9.08 0.562 13.6 0.0561 1.29 0.112 2.57 0.17 3.89 0.0483 1.24 0.0967 2.49 0.146 3.77 0.0471 1.14 0.0943 2.28 0.143 3.46-0.0214 3.2-0.405 6.12-1.02 9.25h-2v-34z" fill="#0770B6"/>
<path transform="translate(1225,356)" d="m0 0h5l-2 1c-0.546 2.25-0.546 2.25-0.75 4.88-0.098 0.884-0.196 1.77-0.297 2.68-0.168 2.71-0.168 2.71 2.05 5.45l-2 3c-0.99-0.33-1.98-0.66-3-1v-2c-0.99-0.33-1.98-0.66-3-1 0.285-1.42 0.578-2.83 0.875-4.25 0.162-0.789 0.325-1.58 0.492-2.39 0.624-2.33 1.48-4.25 2.63-6.36z" fill="#F1444D"/>
<path transform="translate(651,355)" d="m0 0 2 1v7h-5v4h-2c-0.195-1.99-0.391-3.97-0.586-5.96-0.341-2.34-0.341-2.34-2.41-5.04 2.74-1.37 4.97-1.13 8-1z" fill="#F04148"/>
<path transform="translate(733 167)" d="m0 0c1.45 0.0309 1.45 0.0309 2.94 0.0625l1 4 5-1c0.25 7.62 0.25 7.62-2 11-0.289-0.639-0.578-1.28-0.875-1.94-0.953-2.21-0.953-2.21-3.12-3.06v-3c-0.598-0.268-1.2-0.536-1.81-0.812-2.16-1.17-3.55-2.38-5.19-4.19 1-1 1-1 4.06-1.06z" fill="#0E71B9"/>
<path transform="translate(693,366)" d="m0 0 1 19h-2c-2-2-2-2-2.12-5.12l0.125-2.88h-2v-10l2 2v-2c2-1 2-1 3-1z" fill="#ED4C57"/>
<path transform="translate(1268,133)" d="m0 0 3 2-4 1c-1 3.58-1 3.58 0 7h-6l-1 2c-1.58-1.58-1.35-3.38-1.56-5.56-0.0838-0.826-0.168-1.65-0.254-2.5-0.0606-0.638-0.121-1.28-0.184-1.93l3.31 0.125c3.78 0.196 3.78 0.196 6.69-2.12z" fill="#1072BA"/>
<path transform="translate(953,139)" d="m0 0c0.99 0.33 1.98 0.66 3 1 0.949 2.29 0.949 2.29 1.69 5.06 0.251 0.919 0.503 1.84 0.762 2.79 0.182 0.71 0.364 1.42 0.551 2.15l-4 1-1 6h-2c-0.0269-2.63-0.0468-5.25-0.0625-7.88-0.00838-0.746-0.0168-1.49-0.0254-2.26-0.0254-5.64-0.0254-5.64 1.09-7.86z" fill="#0B76BC"/>
<path transform="translate(560,355)" d="m0 0h3c0.125 6.75 0.125 6.75-1 9h-2v12h-1c-0.976-4.1-1.17-7.98-1.19-12.2-0.0142-1.23-0.0284-2.46-0.043-3.73 0.23-3.08 0.23-3.08 2.23-5.08z" fill="#F13C42"/>
<path transform="translate(744,394)" d="m0 0c1.31 3.92 1.2 6.86 1 11-2 2-2 2-5.12 2.12-1.42-0.0619-1.42-0.0619-2.88-0.125-1.23-3.69-0.644-6.21 0-10l4 1v2h-2v3h4l-0.0625-3.38c0.0625-3.62 0.0625-3.62 1.06-5.62z" fill="#EC434C"/>
<path transform="translate(1249,396)" d="m0 0c0.99 0.33 1.98 0.66 3 1l2-1 2 2-4 8h-5l2-10z" fill="#F03A3F"/>
<path transform="translate(1089,358)" d="m0 0c2.88 1.29 4.87 2.66 7 5l-2 3c-0.99-0.33-1.98-0.66-3-1l-2 2c-3-2-3-2-4-5l4-4z" fill="#F23D44"/>
<path transform="translate(756 232)" d="m0 0 2.81 0.625-1 2 4 1v3l-15-1 1-2h6l-4-2c3-2 3-2 6.19-1.62z" fill="#0B76BC"/>
<path transform="translate(842,382)" d="m0 0h1l1 19c0.99 0.33 1.98 0.66 3 1 1.19 2.06 1.19 2.06 2 4-1.75 0.625-1.75 0.625-4 1l-4-2 1-23z" fill="#EE3033"/>
<path transform="translate(1187,370)" d="m0 0 2 1v2l4 2v7c-1.98-0.66-3.96-1.32-6-2v-10z" fill="#F03C41"/>
<path transform="translate(1344,360)" d="m0 0h3l-1 34h-1l-1-34z" fill="#D54045"/>
<path transform="translate(1336,169)" d="m0 0c3.25 4.34 3.21 4.96 3 10 0.439 2.27 0.439 2.27 1 4l-2 1c-0.727 1.98-1.4 3.98-2 6h-1l1-21z" fill="#0971B8"/>
<path transform="translate(886,221)" d="m0 0v20l-2-1 1-15h-5l-1-4c3.01-0.934 3.87-1.04 7 0z" fill="#0F71B9"/>
<path transform="translate(1211,157)" d="m0 0c1.89 0.648 1.89 0.648 4 2 1.05 2.6 1.05 2.6 1.75 5.62 0.242 1 0.485 2.01 0.734 3.04 0.17 0.771 0.34 1.54 0.516 2.34l-2 1c-3-2-3-2-3.75-5.06l-0.25-2.94 1-1-2-1v-4z" fill="#0D72B9"/>
<path transform="translate(1339,184)" d="m0 0c1.98 2.92 1.99 4.12 1.62 7.75l-0.625 3.25c-3 0-3 0-4.69-1.5-0.433-0.495-0.866-0.99-1.31-1.5 1-3 1-3 3-6h2v-2z" fill="#0C75BB"/>
<path transform="translate(1179,211)" d="m0 0c1.88 0.125 1.88 0.125 4 1 1.75 2.56 1.75 2.56 3 5h-3v2h-4c-0.381-2.33-0.713-4.66-1-7l1-1z" fill="#0B75BB"/>
<path transform="translate(655,184)" d="m0 0h1v5h2v6c-0.99 0.33-1.98 0.66-3 1-3-5.75-3-5.75-3-8l2-1 1-3z" fill="#0F72BA"/>
<path transform="translate(1153,133)" d="m0 0c2.97 0.495 2.97 0.495 6 1l-2 1v2c-2.75 0.054-5.5 0.0937-8.25 0.125-0.777 0.0168-1.55 0.0335-2.36 0.0508-0.754 0.00645-1.51 0.0129-2.29 0.0195-0.691 0.0105-1.38 0.0209-2.09 0.0317-2.01-0.227-2.01-0.227-6.01-2.23h17v-2z" fill="#0E71B9"/>
<path transform="translate(1117,357)" d="m0 0 6 5-2 3c-0.99-0.33-1.98-0.66-3-1h-3l2-7z" fill="#F23D44"/>
<path transform="translate(561,403)" d="m0 0 2 1c1.88 0.153 3.77 0.25 5.66 0.316 1.68 0.0628 1.68 0.0628 3.4 0.127 1.18 0.0393 2.35 0.0786 3.56 0.119 1.18 0.0432 2.37 0.0864 3.59 0.131 2.93 0.106 5.86 0.208 8.79 0.307v1h-28l1-3z" fill="#F13B41"/>
<path transform="translate(325 203)" d="m0 0 3.38 0.125-1 2-2.5 0.812-2.5 1.19c-0.737 2.52-0.737 2.52-1 5l-2 1c-0.195-6.05-0.195-6.05 0-8 2-2 2-2 5.62-2.12z" fill="#0770B6"/>
<path transform="translate(470,389)" d="m0 0 4 1-0.625 2.25c-0.425 3.12 0.0742 4.1 1.62 6.75v2h-2c-2.42-4.23-3.35-7.12-3-12z" fill="#EF3236"/>
<path transform="translate(1330,228)" d="m0 0c2.62 0.375 2.62 0.375 5 1l-1 3c-2.88 1.31-2.88 1.31-6 2l-3-2 3-2 2-2z" fill="#0B75BB"/>
<path transform="translate(1050,172)" d="m0 0c2 2 2 2 2.19 5.38-0.143 2.77-0.35 5.01-1.19 7.62h-2c-0.0269-1.98-0.0463-3.96-0.0625-5.94-0.0116-1.1-0.0232-2.2-0.0352-3.34 0.0977-2.72 0.0977-2.72 1.1-3.72z" fill="#046FB5"/>
<path transform="translate(1204,144)" d="m0 0c1.81 0.188 1.81 0.188 4 1 1.88 2.31 1.88 2.31 3 5-0.812 2.31-0.812 2.31-2 4l-2-1c-0.717-2.32-1.38-4.65-2-7l-1-2z" fill="#0C73BA"/>
<path transform="translate(324,220)" d="m0 0h2v11c-0.99-0.33-1.98-0.66-3-1-0.125-6.62-0.125-6.62 1-10z" fill="#006FB4"/>
<path transform="translate(653,212)" d="m0 0c2.06 0.438 2.06 0.438 4 1v8h-3c-0.361-1.31-0.714-2.62-1.06-3.94-0.296-1.1-0.296-1.1-0.598-2.21-0.112-0.61-0.224-1.22-0.34-1.85l1-1z" fill="#1072BA"/>
<path transform="translate(508,130)" d="m0 0c1.25 6.62 1.25 6.62-1 10l-2-1v-8c2-1 2-1 3-1z" fill="#0B76BC"/>
<path transform="translate(1345,355)" d="m0 0h5l1 3-3 3c-0.99-0.33-1.98-0.66-3-1v-5z" fill="#F1444D"/>
</svg>
